<?xml version="1.0" encoding="utf-8" standalone="no"?>
<!DOCTYPE svg PUBLIC "-//W3C//DTD SVG 1.1//EN"
  "http://www.w3.org/Graphics/SVG/1.1/DTD/svg11.dtd">
<svg xmlns:xlink="http://www.w3.org/1999/xlink" width="460.8pt" height="345.6pt" viewBox="0 0 460.8 345.6" xmlns="http://www.w3.org/2000/svg" version="1.1">
 <metadata>
  <rdf:RDF xmlns:dc="http://purl.org/dc/elements/1.1/" xmlns:cc="http://creativecommons.org/ns#" xmlns:rdf="http://www.w3.org/1999/02/22-rdf-syntax-ns#">
   <cc:Work>
    <dc:type rdf:resource="http://purl.org/dc/dcmitype/StillImage"/>
    <dc:date>2024-04-10T16:49:04.269700</dc:date>
    <dc:format>image/svg+xml</dc:format>
    <dc:creator>
     <cc:Agent>
      <dc:title>Matplotlib v3.8.4, https://matplotlib.org/</dc:title>
     </cc:Agent>
    </dc:creator>
   </cc:Work>
  </rdf:RDF>
 </metadata>
 <defs>
  <style type="text/css">*{stroke-linejoin: round; stroke-linecap: butt}</style>
 </defs>
 <g id="figure_1">
  <g id="patch_1">
   <path d="M 0 345.6 
L 460.8 345.6 
L 460.8 0 
L 0 0 
z
" style="fill: #ffffff"/>
  </g>
  <g id="axes_1">
   <g id="patch_2">
    <path d="M 57.6 307.584 
L 414.72 307.584 
L 414.72 41.472 
L 57.6 41.472 
z
" style="fill: #ffffff"/>
   </g>
   <g id="matplotlib.axis_1">
    <g id="xtick_1">
     <g id="line2d_1">
      <defs>
       <path id="m4b8f76fa9f" d="M 0 0 
L 0 3.5 
" style="stroke: #000000; stroke-width: 0.8"/>
      </defs>
      <g>
       <use xlink:href="#m4b8f76fa9f" x="72.194941" y="307.584" style="stroke: #000000; stroke-width: 0.8"/>
      </g>
     </g>
     <g id="text_1">
      <!-- 0 -->
      <g transform="translate(69.013691 322.182437) scale(0.1 -0.1)">
       <defs>
        <path id="DejaVuSans-30" d="M 2034 4250 
Q 1547 4250 1301 3770 
Q 1056 3291 1056 2328 
Q 1056 1369 1301 889 
Q 1547 409 2034 409 
Q 2525 409 2770 889 
Q 3016 1369 3016 2328 
Q 3016 3291 2770 3770 
Q 2525 4250 2034 4250 
z
M 2034 4750 
Q 2819 4750 3233 4129 
Q 3647 3509 3647 2328 
Q 3647 1150 3233 529 
Q 2819 -91 2034 -91 
Q 1250 -91 836 529 
Q 422 1150 422 2328 
Q 422 3509 836 4129 
Q 1250 4750 2034 4750 
z
" transform="scale(0.015625)"/>
       </defs>
       <use xlink:href="#DejaVuSans-30"/>
      </g>
     </g>
    </g>
    <g id="xtick_2">
     <g id="line2d_2">
      <g>
       <use xlink:href="#m4b8f76fa9f" x="116.579397" y="307.584" style="stroke: #000000; stroke-width: 0.8"/>
      </g>
     </g>
     <g id="text_2">
      <!-- 10000 -->
      <g transform="translate(100.673147 322.182437) scale(0.1 -0.1)">
       <defs>
        <path id="DejaVuSans-31" d="M 794 531 
L 1825 531 
L 1825 4091 
L 703 3866 
L 703 4441 
L 1819 4666 
L 2450 4666 
L 2450 531 
L 3481 531 
L 3481 0 
L 794 0 
L 794 531 
z
" transform="scale(0.015625)"/>
       </defs>
       <use xlink:href="#DejaVuSans-31"/>
       <use xlink:href="#DejaVuSans-30" x="63.623047"/>
       <use xlink:href="#DejaVuSans-30" x="127.246094"/>
       <use xlink:href="#DejaVuSans-30" x="190.869141"/>
       <use xlink:href="#DejaVuSans-30" x="254.492188"/>
      </g>
     </g>
    </g>
    <g id="xtick_3">
     <g id="line2d_3">
      <g>
       <use xlink:href="#m4b8f76fa9f" x="160.963854" y="307.584" style="stroke: #000000; stroke-width: 0.8"/>
      </g>
     </g>
     <g id="text_3">
      <!-- 20000 -->
      <g transform="translate(145.057604 322.182437) scale(0.1 -0.1)">
       <defs>
        <path id="DejaVuSans-32" d="M 1228 531 
L 3431 531 
L 3431 0 
L 469 0 
L 469 531 
Q 828 903 1448 1529 
Q 2069 2156 2228 2338 
Q 2531 2678 2651 2914 
Q 2772 3150 2772 3378 
Q 2772 3750 2511 3984 
Q 2250 4219 1831 4219 
Q 1534 4219 1204 4116 
Q 875 4013 500 3803 
L 500 4441 
Q 881 4594 1212 4672 
Q 1544 4750 1819 4750 
Q 2544 4750 2975 4387 
Q 3406 4025 3406 3419 
Q 3406 3131 3298 2873 
Q 3191 2616 2906 2266 
Q 2828 2175 2409 1742 
Q 1991 1309 1228 531 
z
" transform="scale(0.015625)"/>
       </defs>
       <use xlink:href="#DejaVuSans-32"/>
       <use xlink:href="#DejaVuSans-30" x="63.623047"/>
       <use xlink:href="#DejaVuSans-30" x="127.246094"/>
       <use xlink:href="#DejaVuSans-30" x="190.869141"/>
       <use xlink:href="#DejaVuSans-30" x="254.492188"/>
      </g>
     </g>
    </g>
    <g id="xtick_4">
     <g id="line2d_4">
      <g>
       <use xlink:href="#m4b8f76fa9f" x="205.34831" y="307.584" style="stroke: #000000; stroke-width: 0.8"/>
      </g>
     </g>
     <g id="text_4">
      <!-- 30000 -->
      <g transform="translate(189.44206 322.182437) scale(0.1 -0.1)">
       <defs>
        <path id="DejaVuSans-33" d="M 2597 2516 
Q 3050 2419 3304 2112 
Q 3559 1806 3559 1356 
Q 3559 666 3084 287 
Q 2609 -91 1734 -91 
Q 1441 -91 1130 -33 
Q 819 25 488 141 
L 488 750 
Q 750 597 1062 519 
Q 1375 441 1716 441 
Q 2309 441 2620 675 
Q 2931 909 2931 1356 
Q 2931 1769 2642 2001 
Q 2353 2234 1838 2234 
L 1294 2234 
L 1294 2753 
L 1863 2753 
Q 2328 2753 2575 2939 
Q 2822 3125 2822 3475 
Q 2822 3834 2567 4026 
Q 2313 4219 1838 4219 
Q 1578 4219 1281 4162 
Q 984 4106 628 3988 
L 628 4550 
Q 988 4650 1302 4700 
Q 1616 4750 1894 4750 
Q 2613 4750 3031 4423 
Q 3450 4097 3450 3541 
Q 3450 3153 3228 2886 
Q 3006 2619 2597 2516 
z
" transform="scale(0.015625)"/>
       </defs>
       <use xlink:href="#DejaVuSans-33"/>
       <use xlink:href="#DejaVuSans-30" x="63.623047"/>
       <use xlink:href="#DejaVuSans-30" x="127.246094"/>
       <use xlink:href="#DejaVuSans-30" x="190.869141"/>
       <use xlink:href="#DejaVuSans-30" x="254.492188"/>
      </g>
     </g>
    </g>
    <g id="xtick_5">
     <g id="line2d_5">
      <g>
       <use xlink:href="#m4b8f76fa9f" x="249.732767" y="307.584" style="stroke: #000000; stroke-width: 0.8"/>
      </g>
     </g>
     <g id="text_5">
      <!-- 40000 -->
      <g transform="translate(233.826517 322.182437) scale(0.1 -0.1)">
       <defs>
        <path id="DejaVuSans-34" d="M 2419 4116 
L 825 1625 
L 2419 1625 
L 2419 4116 
z
M 2253 4666 
L 3047 4666 
L 3047 1625 
L 3713 1625 
L 3713 1100 
L 3047 1100 
L 3047 0 
L 2419 0 
L 2419 1100 
L 313 1100 
L 313 1709 
L 2253 4666 
z
" transform="scale(0.015625)"/>
       </defs>
       <use xlink:href="#DejaVuSans-34"/>
       <use xlink:href="#DejaVuSans-30" x="63.623047"/>
       <use xlink:href="#DejaVuSans-30" x="127.246094"/>
       <use xlink:href="#DejaVuSans-30" x="190.869141"/>
       <use xlink:href="#DejaVuSans-30" x="254.492188"/>
      </g>
     </g>
    </g>
    <g id="xtick_6">
     <g id="line2d_6">
      <g>
       <use xlink:href="#m4b8f76fa9f" x="294.117223" y="307.584" style="stroke: #000000; stroke-width: 0.8"/>
      </g>
     </g>
     <g id="text_6">
      <!-- 50000 -->
      <g transform="translate(278.210973 322.182437) scale(0.1 -0.1)">
       <defs>
        <path id="DejaVuSans-35" d="M 691 4666 
L 3169 4666 
L 3169 4134 
L 1269 4134 
L 1269 2991 
Q 1406 3038 1543 3061 
Q 1681 3084 1819 3084 
Q 2600 3084 3056 2656 
Q 3513 2228 3513 1497 
Q 3513 744 3044 326 
Q 2575 -91 1722 -91 
Q 1428 -91 1123 -41 
Q 819 9 494 109 
L 494 744 
Q 775 591 1075 516 
Q 1375 441 1709 441 
Q 2250 441 2565 725 
Q 2881 1009 2881 1497 
Q 2881 1984 2565 2268 
Q 2250 2553 1709 2553 
Q 1456 2553 1204 2497 
Q 953 2441 691 2322 
L 691 4666 
z
" transform="scale(0.015625)"/>
       </defs>
       <use xlink:href="#DejaVuSans-35"/>
       <use xlink:href="#DejaVuSans-30" x="63.623047"/>
       <use xlink:href="#DejaVuSans-30" x="127.246094"/>
       <use xlink:href="#DejaVuSans-30" x="190.869141"/>
       <use xlink:href="#DejaVuSans-30" x="254.492188"/>
      </g>
     </g>
    </g>
    <g id="xtick_7">
     <g id="line2d_7">
      <g>
       <use xlink:href="#m4b8f76fa9f" x="338.50168" y="307.584" style="stroke: #000000; stroke-width: 0.8"/>
      </g>
     </g>
     <g id="text_7">
      <!-- 60000 -->
      <g transform="translate(322.59543 322.182437) scale(0.1 -0.1)">
       <defs>
        <path id="DejaVuSans-36" d="M 2113 2584 
Q 1688 2584 1439 2293 
Q 1191 2003 1191 1497 
Q 1191 994 1439 701 
Q 1688 409 2113 409 
Q 2538 409 2786 701 
Q 3034 994 3034 1497 
Q 3034 2003 2786 2293 
Q 2538 2584 2113 2584 
z
M 3366 4563 
L 3366 3988 
Q 3128 4100 2886 4159 
Q 2644 4219 2406 4219 
Q 1781 4219 1451 3797 
Q 1122 3375 1075 2522 
Q 1259 2794 1537 2939 
Q 1816 3084 2150 3084 
Q 2853 3084 3261 2657 
Q 3669 2231 3669 1497 
Q 3669 778 3244 343 
Q 2819 -91 2113 -91 
Q 1303 -91 875 529 
Q 447 1150 447 2328 
Q 447 3434 972 4092 
Q 1497 4750 2381 4750 
Q 2619 4750 2861 4703 
Q 3103 4656 3366 4563 
z
" transform="scale(0.015625)"/>
       </defs>
       <use xlink:href="#DejaVuSans-36"/>
       <use xlink:href="#DejaVuSans-30" x="63.623047"/>
       <use xlink:href="#DejaVuSans-30" x="127.246094"/>
       <use xlink:href="#DejaVuSans-30" x="190.869141"/>
       <use xlink:href="#DejaVuSans-30" x="254.492188"/>
      </g>
     </g>
    </g>
    <g id="xtick_8">
     <g id="line2d_8">
      <g>
       <use xlink:href="#m4b8f76fa9f" x="382.886136" y="307.584" style="stroke: #000000; stroke-width: 0.8"/>
      </g>
     </g>
     <g id="text_8">
      <!-- 70000 -->
      <g transform="translate(366.979886 322.182437) scale(0.1 -0.1)">
       <defs>
        <path id="DejaVuSans-37" d="M 525 4666 
L 3525 4666 
L 3525 4397 
L 1831 0 
L 1172 0 
L 2766 4134 
L 525 4134 
L 525 4666 
z
" transform="scale(0.015625)"/>
       </defs>
       <use xlink:href="#DejaVuSans-37"/>
       <use xlink:href="#DejaVuSans-30" x="63.623047"/>
       <use xlink:href="#DejaVuSans-30" x="127.246094"/>
       <use xlink:href="#DejaVuSans-30" x="190.869141"/>
       <use xlink:href="#DejaVuSans-30" x="254.492188"/>
      </g>
     </g>
    </g>
    <g id="text_9">
     <!-- Position -->
     <g transform="translate(216.695937 335.860562) scale(0.1 -0.1)">
      <defs>
       <path id="DejaVuSans-50" d="M 1259 4147 
L 1259 2394 
L 2053 2394 
Q 2494 2394 2734 2622 
Q 2975 2850 2975 3272 
Q 2975 3691 2734 3919 
Q 2494 4147 2053 4147 
L 1259 4147 
z
M 628 4666 
L 2053 4666 
Q 2838 4666 3239 4311 
Q 3641 3956 3641 3272 
Q 3641 2581 3239 2228 
Q 2838 1875 2053 1875 
L 1259 1875 
L 1259 0 
L 628 0 
L 628 4666 
z
" transform="scale(0.015625)"/>
       <path id="DejaVuSans-6f" d="M 1959 3097 
Q 1497 3097 1228 2736 
Q 959 2375 959 1747 
Q 959 1119 1226 758 
Q 1494 397 1959 397 
Q 2419 397 2687 759 
Q 2956 1122 2956 1747 
Q 2956 2369 2687 2733 
Q 2419 3097 1959 3097 
z
M 1959 3584 
Q 2709 3584 3137 3096 
Q 3566 2609 3566 1747 
Q 3566 888 3137 398 
Q 2709 -91 1959 -91 
Q 1206 -91 779 398 
Q 353 888 353 1747 
Q 353 2609 779 3096 
Q 1206 3584 1959 3584 
z
" transform="scale(0.015625)"/>
       <path id="DejaVuSans-73" d="M 2834 3397 
L 2834 2853 
Q 2591 2978 2328 3040 
Q 2066 3103 1784 3103 
Q 1356 3103 1142 2972 
Q 928 2841 928 2578 
Q 928 2378 1081 2264 
Q 1234 2150 1697 2047 
L 1894 2003 
Q 2506 1872 2764 1633 
Q 3022 1394 3022 966 
Q 3022 478 2636 193 
Q 2250 -91 1575 -91 
Q 1294 -91 989 -36 
Q 684 19 347 128 
L 347 722 
Q 666 556 975 473 
Q 1284 391 1588 391 
Q 1994 391 2212 530 
Q 2431 669 2431 922 
Q 2431 1156 2273 1281 
Q 2116 1406 1581 1522 
L 1381 1569 
Q 847 1681 609 1914 
Q 372 2147 372 2553 
Q 372 3047 722 3315 
Q 1072 3584 1716 3584 
Q 2034 3584 2315 3537 
Q 2597 3491 2834 3397 
z
" transform="scale(0.015625)"/>
       <path id="DejaVuSans-69" d="M 603 3500 
L 1178 3500 
L 1178 0 
L 603 0 
L 603 3500 
z
M 603 4863 
L 1178 4863 
L 1178 4134 
L 603 4134 
L 603 4863 
z
" transform="scale(0.015625)"/>
       <path id="DejaVuSans-74" d="M 1172 4494 
L 1172 3500 
L 2356 3500 
L 2356 3053 
L 1172 3053 
L 1172 1153 
Q 1172 725 1289 603 
Q 1406 481 1766 481 
L 2356 481 
L 2356 0 
L 1766 0 
Q 1100 0 847 248 
Q 594 497 594 1153 
L 594 3053 
L 172 3053 
L 172 3500 
L 594 3500 
L 594 4494 
L 1172 4494 
z
" transform="scale(0.015625)"/>
       <path id="DejaVuSans-6e" d="M 3513 2113 
L 3513 0 
L 2938 0 
L 2938 2094 
Q 2938 2591 2744 2837 
Q 2550 3084 2163 3084 
Q 1697 3084 1428 2787 
Q 1159 2491 1159 1978 
L 1159 0 
L 581 0 
L 581 3500 
L 1159 3500 
L 1159 2956 
Q 1366 3272 1645 3428 
Q 1925 3584 2291 3584 
Q 2894 3584 3203 3211 
Q 3513 2838 3513 2113 
z
" transform="scale(0.015625)"/>
      </defs>
      <use xlink:href="#DejaVuSans-50"/>
      <use xlink:href="#DejaVuSans-6f" x="56.677734"/>
      <use xlink:href="#DejaVuSans-73" x="117.859375"/>
      <use xlink:href="#DejaVuSans-69" x="169.958984"/>
      <use xlink:href="#DejaVuSans-74" x="197.742188"/>
      <use xlink:href="#DejaVuSans-69" x="236.951172"/>
      <use xlink:href="#DejaVuSans-6f" x="264.734375"/>
      <use xlink:href="#DejaVuSans-6e" x="325.916016"/>
     </g>
    </g>
   </g>
   <g id="matplotlib.axis_2">
    <g id="ytick_1">
     <g id="line2d_9">
      <defs>
       <path id="mcb32b0b637" d="M 0 0 
L -3.5 0 
" style="stroke: #000000; stroke-width: 0.8"/>
      </defs>
      <g>
       <use xlink:href="#mcb32b0b637" x="57.6" y="289.36034" style="stroke: #000000; stroke-width: 0.8"/>
      </g>
     </g>
     <g id="text_10">
      <!-- −0.6 -->
      <g transform="translate(26.317187 293.159559) scale(0.1 -0.1)">
       <defs>
        <path id="DejaVuSans-2212" d="M 678 2272 
L 4684 2272 
L 4684 1741 
L 678 1741 
L 678 2272 
z
" transform="scale(0.015625)"/>
        <path id="DejaVuSans-2e" d="M 684 794 
L 1344 794 
L 1344 0 
L 684 0 
L 684 794 
z
" transform="scale(0.015625)"/>
       </defs>
       <use xlink:href="#DejaVuSans-2212"/>
       <use xlink:href="#DejaVuSans-30" x="83.789062"/>
       <use xlink:href="#DejaVuSans-2e" x="147.412109"/>
       <use xlink:href="#DejaVuSans-36" x="179.199219"/>
      </g>
     </g>
    </g>
    <g id="ytick_2">
     <g id="line2d_10">
      <g>
       <use xlink:href="#mcb32b0b637" x="57.6" y="253.416386" style="stroke: #000000; stroke-width: 0.8"/>
      </g>
     </g>
     <g id="text_11">
      <!-- −0.4 -->
      <g transform="translate(26.317187 257.215605) scale(0.1 -0.1)">
       <use xlink:href="#DejaVuSans-2212"/>
       <use xlink:href="#DejaVuSans-30" x="83.789062"/>
       <use xlink:href="#DejaVuSans-2e" x="147.412109"/>
       <use xlink:href="#DejaVuSans-34" x="179.199219"/>
      </g>
     </g>
    </g>
    <g id="ytick_3">
     <g id="line2d_11">
      <g>
       <use xlink:href="#mcb32b0b637" x="57.6" y="217.472432" style="stroke: #000000; stroke-width: 0.8"/>
      </g>
     </g>
     <g id="text_12">
      <!-- −0.2 -->
      <g transform="translate(26.317187 221.271651) scale(0.1 -0.1)">
       <use xlink:href="#DejaVuSans-2212"/>
       <use xlink:href="#DejaVuSans-30" x="83.789062"/>
       <use xlink:href="#DejaVuSans-2e" x="147.412109"/>
       <use xlink:href="#DejaVuSans-32" x="179.199219"/>
      </g>
     </g>
    </g>
    <g id="ytick_4">
     <g id="line2d_12">
      <g>
       <use xlink:href="#mcb32b0b637" x="57.6" y="181.528477" style="stroke: #000000; stroke-width: 0.8"/>
      </g>
     </g>
     <g id="text_13">
      <!-- 0.0 -->
      <g transform="translate(34.696875 185.327696) scale(0.1 -0.1)">
       <use xlink:href="#DejaVuSans-30"/>
       <use xlink:href="#DejaVuSans-2e" x="63.623047"/>
       <use xlink:href="#DejaVuSans-30" x="95.410156"/>
      </g>
     </g>
    </g>
    <g id="ytick_5">
     <g id="line2d_13">
      <g>
       <use xlink:href="#mcb32b0b637" x="57.6" y="145.584523" style="stroke: #000000; stroke-width: 0.8"/>
      </g>
     </g>
     <g id="text_14">
      <!-- 0.2 -->
      <g transform="translate(34.696875 149.383742) scale(0.1 -0.1)">
       <use xlink:href="#DejaVuSans-30"/>
       <use xlink:href="#DejaVuSans-2e" x="63.623047"/>
       <use xlink:href="#DejaVuSans-32" x="95.410156"/>
      </g>
     </g>
    </g>
    <g id="ytick_6">
     <g id="line2d_14">
      <g>
       <use xlink:href="#mcb32b0b637" x="57.6" y="109.640569" style="stroke: #000000; stroke-width: 0.8"/>
      </g>
     </g>
     <g id="text_15">
      <!-- 0.4 -->
      <g transform="translate(34.696875 113.439788) scale(0.1 -0.1)">
       <use xlink:href="#DejaVuSans-30"/>
       <use xlink:href="#DejaVuSans-2e" x="63.623047"/>
       <use xlink:href="#DejaVuSans-34" x="95.410156"/>
      </g>
     </g>
    </g>
    <g id="ytick_7">
     <g id="line2d_15">
      <g>
       <use xlink:href="#mcb32b0b637" x="57.6" y="73.696614" style="stroke: #000000; stroke-width: 0.8"/>
      </g>
     </g>
     <g id="text_16">
      <!-- 0.6 -->
      <g transform="translate(34.696875 77.495833) scale(0.1 -0.1)">
       <use xlink:href="#DejaVuSans-30"/>
       <use xlink:href="#DejaVuSans-2e" x="63.623047"/>
       <use xlink:href="#DejaVuSans-36" x="95.410156"/>
      </g>
     </g>
    </g>
    <g id="text_17">
     <!-- Skew -->
     <g transform="translate(20.2375 187.581906) rotate(-90) scale(0.1 -0.1)">
      <defs>
       <path id="DejaVuSans-53" d="M 3425 4513 
L 3425 3897 
Q 3066 4069 2747 4153 
Q 2428 4238 2131 4238 
Q 1616 4238 1336 4038 
Q 1056 3838 1056 3469 
Q 1056 3159 1242 3001 
Q 1428 2844 1947 2747 
L 2328 2669 
Q 3034 2534 3370 2195 
Q 3706 1856 3706 1288 
Q 3706 609 3251 259 
Q 2797 -91 1919 -91 
Q 1588 -91 1214 -16 
Q 841 59 441 206 
L 441 856 
Q 825 641 1194 531 
Q 1563 422 1919 422 
Q 2459 422 2753 634 
Q 3047 847 3047 1241 
Q 3047 1584 2836 1778 
Q 2625 1972 2144 2069 
L 1759 2144 
Q 1053 2284 737 2584 
Q 422 2884 422 3419 
Q 422 4038 858 4394 
Q 1294 4750 2059 4750 
Q 2388 4750 2728 4690 
Q 3069 4631 3425 4513 
z
" transform="scale(0.015625)"/>
       <path id="DejaVuSans-6b" d="M 581 4863 
L 1159 4863 
L 1159 1991 
L 2875 3500 
L 3609 3500 
L 1753 1863 
L 3688 0 
L 2938 0 
L 1159 1709 
L 1159 0 
L 581 0 
L 581 4863 
z
" transform="scale(0.015625)"/>
       <path id="DejaVuSans-65" d="M 3597 1894 
L 3597 1613 
L 953 1613 
Q 991 1019 1311 708 
Q 1631 397 2203 397 
Q 2534 397 2845 478 
Q 3156 559 3463 722 
L 3463 178 
Q 3153 47 2828 -22 
Q 2503 -91 2169 -91 
Q 1331 -91 842 396 
Q 353 884 353 1716 
Q 353 2575 817 3079 
Q 1281 3584 2069 3584 
Q 2775 3584 3186 3129 
Q 3597 2675 3597 1894 
z
M 3022 2063 
Q 3016 2534 2758 2815 
Q 2500 3097 2075 3097 
Q 1594 3097 1305 2825 
Q 1016 2553 972 2059 
L 3022 2063 
z
" transform="scale(0.015625)"/>
       <path id="DejaVuSans-77" d="M 269 3500 
L 844 3500 
L 1563 769 
L 2278 3500 
L 2956 3500 
L 3675 769 
L 4391 3500 
L 4966 3500 
L 4050 0 
L 3372 0 
L 2619 2869 
L 1863 0 
L 1184 0 
L 269 3500 
z
" transform="scale(0.015625)"/>
      </defs>
      <use xlink:href="#DejaVuSans-53"/>
      <use xlink:href="#DejaVuSans-6b" x="63.476562"/>
      <use xlink:href="#DejaVuSans-65" x="117.761719"/>
      <use xlink:href="#DejaVuSans-77" x="179.285156"/>
     </g>
    </g>
   </g>
   <g id="line2d_16">
    <path d="M 73.832727 193.553128 
L 74.48074 179.560743 
L 74.804747 179.253544 
L 75.128753 174.391591 
L 75.45276 175.398 
L 75.776766 173.284451 
L 76.100773 172.033848 
L 76.42478 169.637755 
L 76.748786 169.777569 
L 77.072793 170.101209 
L 77.720806 171.804161 
L 78.044812 177.83054 
L 78.368819 181.156387 
L 78.692825 177.875637 
L 79.016832 185.094346 
L 79.664845 193.79006 
L 79.988851 192.346561 
L 80.312858 183.280132 
L 80.636864 183.602167 
L 80.960871 186.974531 
L 81.284878 185.613018 
L 81.608884 182.211823 
L 81.932891 183.943138 
L 82.256897 180.477485 
L 82.580904 180.107768 
L 83.228917 175.135284 
L 83.552923 179.749074 
L 83.87693 182.604644 
L 84.524943 174.630143 
L 84.848949 175.754348 
L 85.172956 177.469099 
L 85.496962 181.159443 
L 85.820969 177.799851 
L 86.144976 176.393627 
L 86.468982 178.234225 
L 86.792989 176.435205 
L 87.116995 169.980219 
L 87.441002 168.25576 
L 87.765008 167.265003 
L 88.089015 161.716849 
L 88.413021 159.457628 
L 88.737028 152.157931 
L 89.061034 147.52744 
L 89.385041 149.523587 
L 90.35706 158.086768 
L 90.681067 165.256063 
L 91.005073 168.040381 
L 91.32908 178.606205 
L 91.653087 181.163934 
L 92.3011 191.533496 
L 92.625106 191.925489 
L 92.949113 193.31338 
L 93.273119 198.203508 
L 93.597126 198.920713 
L 93.921132 193.509796 
L 94.245139 193.742442 
L 94.569145 187.101184 
L 95.217158 178.664417 
L 95.541165 179.741999 
L 95.865171 176.86509 
L 96.189178 169.643202 
L 96.513185 169.1591 
L 97.161198 167.311295 
L 97.485204 164.394949 
L 98.133217 175.454449 
L 98.457224 177.613789 
L 98.78123 178.709344 
L 99.105237 181.878808 
L 99.429243 189.617626 
L 99.75325 186.100605 
L 100.077256 185.3972 
L 100.401263 190.76309 
L 100.725269 192.474082 
L 101.049276 193.462994 
L 101.373283 188.548781 
L 101.697289 187.037129 
L 102.021296 183.563041 
L 102.345302 182.206665 
L 102.669309 177.519858 
L 102.993315 179.855109 
L 103.317322 183.836805 
L 103.641328 181.197502 
L 104.289341 173.916038 
L 104.613348 173.223497 
L 104.937354 174.847445 
L 105.585367 183.871193 
L 105.909374 182.528773 
L 106.233381 182.849946 
L 106.557387 181.861909 
L 106.881394 182.525075 
L 107.529407 191.367151 
L 108.17742 195.604889 
L 108.501426 198.644646 
L 108.825433 195.199184 
L 109.149439 197.084332 
L 109.473446 200.463832 
L 109.797452 202.379943 
L 110.445465 200.324857 
L 110.769472 201.128231 
L 111.093478 198.707573 
L 111.417485 198.533502 
L 111.741492 195.405145 
L 112.389505 196.505125 
L 112.713511 196.156831 
L 113.037518 196.534206 
L 113.361524 197.417259 
L 113.685531 193.700733 
L 114.009537 192.783655 
L 114.333544 195.803571 
L 114.65755 196.040012 
L 114.981557 195.52305 
L 115.305563 195.465929 
L 115.62957 194.134073 
L 115.953576 198.850865 
L 116.277583 196.474746 
L 116.60159 195.242034 
L 116.925596 198.920713 
L 117.249603 200.219334 
L 117.573609 202.839122 
L 117.897616 201.418413 
L 118.221622 202.714955 
L 118.545629 208.486443 
L 118.869635 205.10462 
L 119.193642 196.246907 
L 119.841655 192.641214 
L 120.165661 183.412332 
L 120.489668 178.123261 
L 120.813674 170.462929 
L 121.137681 170.821768 
L 121.461688 167.076784 
L 121.785694 158.838406 
L 122.109701 159.680191 
L 122.433707 158.45162 
L 122.757714 156.4513 
L 123.08172 156.353723 
L 123.405727 158.086768 
L 123.729733 160.448027 
L 124.05374 165.585594 
L 124.377746 165.450168 
L 124.701753 167.649129 
L 125.025759 170.873155 
L 125.349766 170.026412 
L 125.673772 175.40576 
L 125.997779 183.336523 
L 126.321786 182.608957 
L 126.645792 184.756976 
L 127.293805 176.974175 
L 127.617812 175.61893 
L 127.941818 177.74852 
L 128.265825 176.689868 
L 128.589831 178.459259 
L 128.913838 177.128558 
L 129.237844 174.420916 
L 130.209864 184.220908 
L 130.53387 190.246228 
L 130.857877 193.05767 
L 131.181884 196.991938 
L 132.153903 228.044183 
L 134.097942 288.459866 
L 134.421949 293.246173 
L 134.745955 295.488 
L 135.393968 288.611508 
L 135.717975 290.576204 
L 136.041981 290.426475 
L 136.365988 285.73574 
L 136.689995 285.73574 
L 137.014001 278.59232 
L 138.634034 223.412323 
L 138.95804 218.673065 
L 139.282047 220.630687 
L 139.606053 223.993909 
L 139.93006 221.889274 
L 140.254066 227.414377 
L 140.902079 251.009771 
L 141.226086 258.551237 
L 141.874099 286.071351 
L 142.198106 289.973457 
L 142.522112 286.30128 
L 142.846119 285.417122 
L 143.170125 283.795795 
L 143.494132 285.894047 
L 143.818138 282.879879 
L 144.142145 283.270662 
L 144.466151 282.02484 
L 144.790158 277.329513 
L 145.114164 275.247377 
L 145.438171 270.823207 
L 145.762177 273.817009 
L 146.086184 273.434862 
L 146.410191 274.179043 
L 146.734197 276.981302 
L 147.058204 278.8148 
L 147.38221 281.455653 
L 147.706217 281.785375 
L 148.030223 286.856049 
L 148.35423 287.878116 
L 148.678236 291.560991 
L 149.002243 286.42614 
L 149.326249 279.322604 
L 149.650256 279.112169 
L 149.974262 278.300662 
L 150.298269 272.497745 
L 150.622275 269.903076 
L 151.270289 243.910547 
L 151.594295 226.45842 
L 152.242308 208.649167 
L 153.214328 196.913049 
L 153.538334 185.74066 
L 153.862341 184.304072 
L 154.510354 191.095309 
L 154.83436 197.928761 
L 155.482373 195.406452 
L 155.80638 191.936958 
L 156.130386 192.140502 
L 156.454393 188.744759 
L 156.7784 188.082557 
L 157.102406 185.322945 
L 157.426413 184.304072 
L 157.750419 185.644197 
L 158.074426 185.597604 
L 158.398432 181.87211 
L 158.722439 182.555448 
L 159.046445 185.628548 
L 159.370452 181.186154 
L 159.694458 178.795097 
L 160.342471 192.717257 
L 160.666478 194.214579 
L 160.990484 190.425496 
L 161.314491 194.732379 
L 162.286511 237.759817 
L 162.934524 258.97473 
L 163.25853 260.132813 
L 163.906543 273.252676 
L 164.23055 281.289764 
L 164.554556 282.02484 
L 164.878563 273.418053 
L 165.202569 272.12492 
L 165.526576 268.0326 
L 165.850582 267.644201 
L 166.174589 268.949577 
L 166.822602 267.286875 
L 167.146609 267.252553 
L 167.470615 268.949577 
L 167.794622 266.500587 
L 168.118628 275.279204 
L 168.766641 280.300087 
L 169.090648 278.922628 
L 169.414654 272.69068 
L 169.738661 274.408864 
L 170.062667 271.01238 
L 170.386674 268.799807 
L 170.71068 265.447214 
L 171.358694 251.439835 
L 172.006707 224.933851 
L 172.330713 220.166456 
L 172.65472 218.034056 
L 173.302733 200.534093 
L 173.626739 198.770965 
L 173.950746 194.599006 
L 174.598759 191.566879 
L 174.922765 189.623963 
L 175.246772 191.798179 
L 175.570778 192.401204 
L 175.894785 191.354426 
L 176.218792 187.901519 
L 176.542798 192.248604 
L 176.866805 187.812386 
L 177.190811 187.14472 
L 177.838824 189.315296 
L 178.162831 190.561187 
L 178.486837 188.069405 
L 178.810844 184.648612 
L 179.458857 184.05086 
L 179.782863 185.649037 
L 180.430876 180.570823 
L 180.754883 180.253869 
L 181.078889 183.447194 
L 181.402896 182.479376 
L 181.726903 184.692558 
L 182.050909 185.272639 
L 182.374916 186.249662 
L 182.698922 189.755087 
L 183.346935 187.243947 
L 183.994948 192.62229 
L 184.318955 192.401204 
L 184.642961 195.80225 
L 184.966968 195.853966 
L 185.290974 200.534093 
L 185.614981 199.070186 
L 186.262994 195.199184 
L 186.587001 196.894852 
L 186.911007 195.770422 
L 187.235014 198.112788 
L 187.55902 198.419433 
L 187.883027 195.919446 
L 188.207033 198.899162 
L 188.53104 198.899162 
L 188.855046 196.645094 
L 189.179053 200.09731 
L 189.827066 203.494227 
L 190.151072 200.480744 
L 190.475079 195.503071 
L 190.799085 195.353075 
L 191.447099 185.338791 
L 191.771105 178.386523 
L 192.095112 178.125866 
L 192.419118 175.41556 
L 192.743125 175.09898 
L 193.067131 173.056838 
L 193.391138 172.164926 
L 193.715144 174.486647 
L 194.039151 172.941185 
L 194.363157 179.370607 
L 194.687164 182.776531 
L 195.01117 189.640828 
L 195.335177 191.389208 
L 195.659183 190.852043 
L 195.98319 189.594894 
L 196.307197 195.452712 
L 196.631203 194.757401 
L 196.95521 192.821461 
L 197.927229 178.319196 
L 198.251236 177.991952 
L 198.575242 178.961052 
L 198.899249 180.888905 
L 199.223255 178.665685 
L 199.547262 175.288208 
L 199.871268 176.773986 
L 200.519281 183.454046 
L 200.843288 187.658954 
L 201.167295 187.681046 
L 201.491301 183.135989 
L 202.139314 180.258373 
L 202.463321 180.577579 
L 202.787327 185.693107 
L 203.111334 181.528477 
L 203.43534 180.249333 
L 204.083353 181.528477 
L 204.40736 180.910884 
L 204.731366 183.05931 
L 205.055373 184.293397 
L 205.379379 182.759435 
L 205.703386 185.23404 
L 206.027392 180.276075 
L 206.675406 183.075119 
L 206.999412 182.453279 
L 207.323419 180.908754 
L 207.647425 181.217005 
L 208.295438 180.574213 
L 208.619445 177.718164 
L 208.943451 172.238151 
L 209.267458 175.177955 
L 209.591464 173.548026 
L 209.915471 169.419698 
L 210.239477 168.89952 
L 210.563484 172.559099 
L 210.88749 171.713273 
L 212.83153 244.449236 
L 213.803549 278.843987 
L 214.127556 290.754718 
L 214.451562 289.973457 
L 214.775569 285.095803 
L 215.099575 284.22549 
L 215.423582 288.154673 
L 215.747588 286.618852 
L 216.071595 281.539898 
L 216.395602 281.949216 
L 217.043615 273.237332 
L 217.367621 267.286875 
L 217.691628 264.592237 
L 218.015634 267.448786 
L 218.339641 267.644201 
L 218.987654 265.447214 
L 219.31166 270.269775 
L 219.635667 269.878113 
L 219.959673 273.998401 
L 220.607686 285.227155 
L 220.931693 289.508258 
L 221.2557 283.751017 
L 221.579706 284.386963 
L 221.903713 282.383877 
L 222.227719 278.243654 
L 222.551726 276.020316 
L 222.875732 270.278982 
L 223.523745 240.204953 
L 223.847752 230.476545 
L 224.171758 216.324521 
L 224.495765 207.302243 
L 224.819771 193.464326 
L 225.467784 186.103163 
L 225.791791 182.496447 
L 226.115797 175.79274 
L 226.439804 180.58424 
L 226.763811 179.987141 
L 227.087817 181.528477 
L 227.411824 177.249435 
L 227.73583 178.744522 
L 228.059837 183.091258 
L 228.383843 182.772213 
L 229.031856 179.3557 
L 229.355863 182.446977 
L 229.679869 181.528477 
L 230.003876 183.407081 
L 230.327882 183.407081 
L 230.651889 188.138136 
L 230.975895 187.834434 
L 231.299902 189.016801 
L 231.623909 187.487772 
L 231.947915 187.856638 
L 232.271922 185.663623 
L 232.595928 179.277962 
L 232.919935 182.492984 
L 233.243941 181.853468 
L 233.567948 180.211849 
L 233.891954 176.600147 
L 234.215961 180.877319 
L 234.539967 181.528477 
L 234.863974 183.496212 
L 235.18798 181.528477 
L 235.835993 185.116349 
L 236.16 183.481953 
L 237.13202 189.932639 
L 238.104039 185.103373 
L 238.752052 191.156322 
L 239.076059 190.852043 
L 239.400065 193.977982 
L 239.724072 195.89329 
L 240.048078 194.911865 
L 240.372085 198.039835 
L 240.696091 195.981466 
L 241.020098 195.158019 
L 241.344105 197.059816 
L 241.668111 191.459517 
L 241.992118 188.328685 
L 242.316124 189.682732 
L 242.640131 191.566879 
L 242.964137 189.314172 
L 243.288144 185.76869 
L 243.61215 183.803411 
L 243.936157 184.133112 
L 244.260163 186.71894 
L 244.58417 185.379615 
L 244.908176 188.818697 
L 245.232183 188.092156 
L 245.556189 188.345434 
L 245.880196 186.18443 
L 246.204203 185.52225 
L 246.528209 188.914221 
L 246.852216 188.939602 
L 247.176222 189.851692 
L 247.500229 186.751103 
L 248.796255 191.309145 
L 249.120261 191.052089 
L 249.444268 189.794975 
L 249.768274 187.936143 
L 250.092281 185.146996 
L 250.416287 185.721939 
L 250.740294 186.99293 
L 251.0643 186.105382 
L 251.388307 187.325889 
L 251.712314 183.693776 
L 252.03632 183.064544 
L 252.360327 181.528477 
L 252.684333 182.763665 
L 253.00834 183.400558 
L 253.332346 184.381172 
L 253.656353 187.013641 
L 253.980359 188.563771 
L 254.628372 181.528477 
L 254.952379 185.338791 
L 255.276385 183.118918 
L 255.600392 176.44806 
L 255.924398 180.574213 
L 256.248405 179.932387 
L 256.572412 179.609761 
L 256.896418 181.211511 
L 257.544431 177.731581 
L 257.868438 178.054106 
L 258.192444 180.258373 
L 258.516451 178.319196 
L 258.840457 183.77097 
L 259.164464 180.895661 
L 259.48847 181.528477 
L 259.812477 186.503419 
L 260.136483 184.341483 
L 260.46049 189.042893 
L 260.784496 189.755087 
L 261.108503 191.424238 
L 261.43251 189.508929 
L 261.756516 191.725344 
L 262.080523 191.761632 
L 262.404529 195.055772 
L 262.728536 196.397379 
L 263.052542 193.640739 
L 263.376549 192.331305 
L 263.700555 194.805073 
L 264.024562 195.30379 
L 264.348568 198.507351 
L 264.672575 197.808599 
L 264.996581 200.647602 
L 265.320588 201.639216 
L 265.644594 197.170163 
L 265.968601 197.225926 
L 266.292608 195.254854 
L 266.616614 195.158019 
L 266.940621 185.272639 
L 267.264627 184.331732 
L 267.588634 178.102277 
L 267.91264 177.507209 
L 268.236647 176.269895 
L 268.560653 175.931668 
L 268.88466 181.219149 
L 269.532673 183.394081 
L 269.856679 185.577623 
L 270.180686 190.921497 
L 270.504692 191.020719 
L 270.828699 194.864574 
L 271.152705 192.100229 
L 271.476712 194.710071 
L 271.800719 192.70111 
L 272.124725 193.637256 
L 272.448732 192.583296 
L 272.772738 190.419208 
L 273.096745 191.285593 
L 273.420751 190.356817 
L 273.744758 191.184132 
L 274.068764 190.792383 
L 274.392771 189.502392 
L 274.716777 187.011454 
L 275.36479 189.711334 
L 275.688797 184.851028 
L 276.012803 186.321005 
L 276.33681 184.219788 
L 276.660817 185.122873 
L 276.984823 183.02365 
L 277.30883 181.831546 
L 277.956843 187.979956 
L 278.280849 189.794975 
L 278.604856 185.52225 
L 278.928862 185.911886 
L 279.252869 183.091258 
L 279.576875 181.843223 
L 279.900882 177.114308 
L 280.224888 176.430044 
L 280.548895 173.030345 
L 280.872901 175.032582 
L 281.196908 174.117353 
L 281.520915 169.547159 
L 281.844921 168.486866 
L 282.168928 169.210251 
L 282.492934 173.880828 
L 282.816941 176.043314 
L 283.78896 187.748287 
L 284.112967 188.135822 
L 284.436973 187.541407 
L 285.408993 201.497341 
L 285.732999 201.140116 
L 286.381013 197.693748 
L 286.705019 193.846704 
L 287.029026 192.919167 
L 287.353032 190.720494 
L 287.677039 190.592605 
L 288.001045 182.785259 
L 288.325052 184.042041 
L 288.973065 174.364604 
L 289.297071 178.09036 
L 289.621078 175.87296 
L 289.945084 178.397471 
L 290.269091 175.54831 
L 290.593097 180.587536 
L 290.917104 183.731697 
L 291.241111 192.173899 
L 291.889124 189.697558 
L 292.21313 192.324365 
L 292.537137 187.901519 
L 292.861143 190.656102 
L 293.18515 191.878831 
L 293.509156 194.343279 
L 293.833163 191.878831 
L 294.157169 184.331732 
L 294.805182 178.734906 
L 295.129189 182.450117 
L 295.453195 179.694602 
L 295.777202 182.746917 
L 296.101208 179.997645 
L 297.073228 182.722629 
L 297.397235 182.730616 
L 297.721241 183.337737 
L 298.045248 179.713126 
L 298.369254 180.915099 
L 298.693261 180.29329 
L 299.341274 184.605871 
L 299.66528 184.564284 
L 300.313293 180.289031 
L 301.285313 177.507209 
L 301.60932 174.804268 
L 301.933326 174.315644 
L 302.257333 174.267073 
L 302.581339 172.769026 
L 303.229352 166.907208 
L 303.553359 168.932733 
L 303.877365 172.264572 
L 304.525378 176.233441 
L 304.849385 181.528477 
L 305.173391 177.407918 
L 305.497398 175.484804 
L 305.821404 175.398 
L 306.145411 174.72827 
L 306.469418 175.963384 
L 306.793424 179.885701 
L 307.117431 179.253544 
L 307.441437 177.333941 
L 307.765444 181.205821 
L 308.08945 181.528477 
L 308.413457 182.479376 
L 308.737463 182.156868 
L 309.06147 180.29752 
L 309.709483 182.450117 
L 310.033489 179.385311 
L 310.357496 178.754073 
L 310.681502 177.521004 
L 311.329516 171.35566 
L 311.653522 171.249877 
L 311.977529 175.266464 
L 312.625542 178.00456 
L 313.273555 176.281185 
L 313.597561 179.897627 
L 313.921568 181.199922 
L 314.245574 183.853872 
L 314.893587 180.860374 
L 315.217594 181.528477 
L 316.189614 187.239199 
L 316.51362 186.511466 
L 317.161633 179.211648 
L 317.48564 175.839025 
L 317.809646 181.528477 
L 318.133653 183.201846 
L 318.457659 183.853872 
L 318.781666 180.516921 
L 319.105672 178.875787 
L 319.429679 179.867481 
L 319.753685 176.851755 
L 320.077692 178.459259 
L 320.401698 178.435785 
L 321.049711 169.999285 
L 321.373718 168.814077 
L 321.697725 170.594955 
L 322.021731 171.638775 
L 322.345738 171.6011 
L 322.669744 171.997883 
L 322.993751 173.002872 
L 323.317757 176.413114 
L 323.641764 173.68492 
L 323.96577 182.217059 
L 324.289777 181.188743 
L 324.613783 181.184845 
L 324.93779 181.528477 
L 325.261796 181.183526 
L 325.585803 182.227776 
L 325.909809 184.019643 
L 326.233816 178.664417 
L 326.557823 179.414127 
L 326.881829 180.829179 
L 327.205836 185.066268 
L 327.529842 185.929778 
L 327.853849 184.891217 
L 328.501862 190.158028 
L 328.825868 190.679179 
L 329.149875 190.568707 
L 329.797888 187.507413 
L 330.121894 189.985878 
L 330.445901 185.367152 
L 330.769907 185.911886 
L 331.093914 185.507513 
L 331.417921 181.858238 
L 331.741927 181.528477 
L 332.065934 179.261742 
L 332.38994 178.296107 
L 333.037953 186.438854 
L 333.36196 183.828365 
L 333.685966 184.820048 
L 334.009973 187.410215 
L 334.333979 186.070132 
L 334.657986 190.785801 
L 334.981992 187.013641 
L 335.305999 187.748287 
L 335.630005 186.136677 
L 336.278019 179.553535 
L 336.602025 179.553535 
L 336.926032 182.525075 
L 337.250038 177.805469 
L 337.574045 178.150286 
L 337.898051 179.836201 
L 338.222058 180.524456 
L 338.870071 187.748287 
L 339.194077 187.073371 
L 339.518084 186.103163 
L 339.84209 189.486548 
L 340.166097 185.435429 
L 340.490103 184.726338 
L 340.81411 186.086588 
L 341.138116 182.189212 
L 341.462123 184.507258 
L 342.110136 173.802207 
L 342.434143 174.87219 
L 342.758149 174.847445 
L 343.082156 173.130357 
L 343.406162 170.128343 
L 344.054175 176.223097 
L 344.378182 176.261964 
L 344.702188 173.971705 
L 345.026195 178.560628 
L 345.350201 181.195046 
L 345.674208 182.540033 
L 346.646228 194.53232 
L 346.970234 192.06026 
L 347.294241 183.897665 
L 347.618247 182.55155 
L 347.942254 179.823356 
L 348.26626 175.073514 
L 348.914273 176.851755 
L 349.23828 173.481323 
L 349.562286 172.278195 
L 349.886293 176.203447 
L 350.210299 175.537818 
L 350.534306 180.85537 
L 350.858312 183.879951 
L 351.182319 183.897665 
L 351.506326 183.555392 
L 351.830332 182.884853 
L 352.154339 181.528477 
L 352.478345 182.555448 
L 352.802352 180.837248 
L 353.126358 176.393627 
L 353.450365 176.76318 
L 353.774371 173.982991 
L 354.098378 168.814077 
L 354.422384 168.126812 
L 354.746391 167.123458 
L 355.394404 174.562595 
L 355.71841 170.834979 
L 356.042417 176.334264 
L 356.366424 174.898039 
L 356.69043 180.489635 
L 357.014437 180.837248 
L 357.338443 179.095134 
L 357.66245 181.528477 
L 357.986456 181.179507 
L 358.310463 178.045536 
L 358.634469 176.920278 
L 358.958476 180.10213 
L 359.282482 179.405803 
L 359.606489 178.00456 
L 359.930495 178.363159 
L 360.254502 178.00456 
L 360.578508 181.877448 
L 360.902515 184.325672 
L 361.550528 193.089398 
L 361.874535 193.044502 
L 362.198541 194.490722 
L 362.522548 195.132763 
L 362.846554 194.520268 
L 363.170561 191.064629 
L 363.494567 191.411235 
L 363.818574 191.492407 
L 364.466587 180.055365 
L 364.790593 181.888637 
L 365.1146 176.846399 
L 365.438606 175.800357 
L 366.086619 178.338186 
L 366.410626 175.024333 
L 366.734633 175.774737 
L 367.058639 174.822516 
L 367.706652 188.160203 
L 368.030659 189.225972 
L 368.354665 195.405145 
L 368.678672 196.248383 
L 369.002678 192.06026 
L 369.326685 193.101342 
L 369.650691 201.959049 
L 369.974698 201.575497 
L 370.298704 203.066603 
L 370.622711 202.67198 
L 370.946717 206.499326 
L 371.594731 193.742442 
L 371.918737 192.304711 
L 372.242744 194.34087 
L 372.56675 198.612106 
L 372.890757 196.758967 
L 373.214763 196.816549 
L 373.53877 197.126797 
L 373.862776 196.304673 
L 374.186783 189.462364 
L 374.510789 188.662911 
L 374.834796 190.411964 
L 375.158802 190.806554 
L 375.482809 192.140502 
L 375.806815 185.708007 
L 376.454829 183.27333 
L 376.778835 183.943138 
L 377.102842 178.763558 
L 377.750855 185.675857 
L 378.074861 188.467465 
L 378.398868 188.548781 
L 378.722874 186.824738 
L 379.046881 190.086562 
L 379.694894 185.474421 
L 380.0189 182.631053 
L 380.342907 187.420929 
L 380.666913 182.649391 
L 380.99092 179.668024 
L 381.314927 177.799851 
L 381.638933 179.309715 
L 381.96294 176.789417 
L 382.286946 177.962609 
L 382.934959 181.169755 
L 383.258966 180.45659 
L 383.582972 173.310675 
L 383.906979 177.232387 
L 384.554992 170.99944 
L 384.878998 162.533705 
L 385.203005 167.136134 
L 385.527011 162.393387 
L 385.851018 165.670851 
L 386.175024 160.1422 
L 386.499031 157.140617 
L 386.823038 160.231124 
L 387.147044 156.071343 
L 387.471051 155.087829 
L 387.795057 154.987583 
L 388.119064 157.69196 
L 388.44307 156.173821 
L 388.767077 156.062113 
L 389.091083 153.379598 
L 389.41509 160.384975 
L 389.739096 164.933528 
L 390.063103 165.190316 
L 390.387109 167.542503 
L 390.711116 165.002521 
L 391.035122 166.69556 
L 391.359129 169.637755 
L 391.683136 168.37825 
L 392.007142 173.714574 
L 392.331149 177.095162 
L 392.655155 172.214785 
L 392.979162 171.961645 
L 393.303168 172.104969 
L 393.627175 172.843135 
L 393.951181 179.185762 
L 394.923201 185.251486 
L 395.247207 183.214404 
L 395.571214 182.86967 
L 396.86724 195.563736 
L 397.191247 196.336848 
L 397.515253 196.532911 
L 397.83926 198.050558 
L 398.163266 198.238665 
L 398.487273 199.500455 
L 398.487273 199.500455 
" clip-path="url(#pa716d07191)" style="fill: none; stroke: #56b4e9; stroke-width: 1.5; stroke-linecap: square"/>
   </g>
   <g id="line2d_17">
    <path d="M 73.832727 170.842437 
L 74.804747 184.442852 
L 75.128753 179.575002 
L 75.45276 182.521404 
L 75.776766 178.734906 
L 76.100773 179.800403 
L 76.42478 182.388381 
L 76.748786 179.879672 
L 77.072793 179.066563 
L 77.396799 183.104967 
L 77.720806 179.272581 
L 78.044812 172.970393 
L 78.368819 172.366293 
L 78.692825 169.839387 
L 79.016832 169.239946 
L 79.340838 166.077456 
L 79.988851 172.663377 
L 80.312858 180.729723 
L 80.636864 176.582062 
L 80.960871 174.68201 
L 81.284878 184.951711 
L 81.608884 181.528477 
L 82.256897 187.119759 
L 82.580904 192.373636 
L 82.90491 191.555761 
L 83.552923 196.183738 
L 83.87693 189.869901 
L 84.848949 211.481773 
L 85.172956 212.317124 
L 85.496962 212.317124 
L 85.820969 218.034056 
L 86.144976 213.414243 
L 86.468982 215.726167 
L 86.792989 206.571396 
L 87.116995 211.481773 
L 87.441002 211.102617 
L 87.765008 199.961275 
L 88.089015 200.281845 
L 88.737028 210.412012 
L 89.061034 209.303351 
L 89.385041 217.155745 
L 89.709047 213.70538 
L 90.033054 225.072915 
L 90.35706 221.810495 
L 90.681067 210.61176 
L 91.005073 211.604031 
L 91.32908 209.290068 
L 91.653087 213.071131 
L 91.977093 208.450063 
L 92.3011 197.866638 
L 92.625106 195.679641 
L 92.949113 194.468301 
L 93.597126 181.528477 
L 93.921132 189.410924 
L 94.245139 185.558069 
L 94.893152 186.927784 
L 95.217158 181.528477 
L 95.541165 185.352302 
L 95.865171 191.386524 
L 96.189178 200.327617 
L 96.513185 200.678945 
L 97.161198 191.064629 
L 97.485204 192.531729 
L 97.809211 183.00159 
L 98.133217 180.763712 
L 98.78123 173.646031 
L 99.105237 166.352141 
L 99.429243 153.81838 
L 99.75325 153.81838 
L 100.401263 164.486085 
L 100.725269 169.75644 
L 101.049276 179.938037 
L 101.373283 178.347597 
L 101.697289 181.528477 
L 102.345302 184.984627 
L 102.669309 183.325675 
L 102.993315 184.210862 
L 103.317322 189.909192 
L 103.641328 189.823236 
L 103.965335 195.353075 
L 104.613348 191.563592 
L 104.937354 195.906059 
L 105.585367 191.363888 
L 106.233381 183.381259 
L 106.557387 177.012905 
L 106.881394 180.616194 
L 107.2054 174.87219 
L 107.529407 175.853116 
L 107.853413 174.192977 
L 108.17742 171.068597 
L 108.501426 166.55183 
L 108.825433 166.175532 
L 109.149439 180.606838 
L 109.473446 187.914459 
L 109.797452 189.823236 
L 110.121459 188.184765 
L 110.445465 193.633954 
L 110.769472 191.563592 
L 111.093478 192.645164 
L 111.417485 186.04405 
L 111.741492 191.078803 
L 112.065498 192.925341 
L 112.389505 181.528477 
L 113.037518 172.663377 
L 113.361524 171.326045 
L 114.009537 158.601264 
L 114.333544 156.062113 
L 114.65755 156.861058 
L 114.981557 157.086588 
L 115.305563 151.092064 
L 115.953576 163.5565 
L 116.277583 164.656825 
L 116.60159 159.063506 
L 116.925596 159.249167 
L 117.249603 155.854224 
L 117.573609 153.640927 
L 117.897616 156.739543 
L 118.221622 152.30575 
L 118.545629 152.27177 
L 118.869635 162.437366 
L 119.193642 159.227484 
L 119.517648 158.728208 
L 119.841655 166.162103 
L 120.165661 168.445429 
L 120.489668 175.378371 
L 120.813674 179.509154 
L 121.137681 178.846093 
L 121.461688 189.342381 
L 121.785694 195.815823 
L 122.109701 192.563902 
L 122.433707 192.760963 
L 123.08172 186.3424 
L 123.405727 189.275019 
L 123.729733 189.940892 
L 124.05374 193.410776 
L 124.377746 194.529482 
L 124.701753 196.183738 
L 125.025759 197.021561 
L 125.673772 185.288305 
L 125.997779 189.731455 
L 126.645792 186.836656 
L 126.969799 190.086562 
L 127.293805 183.924741 
L 127.617812 183.968112 
L 127.941818 180.692572 
L 128.265825 173.284451 
L 128.589831 173.862705 
L 129.237844 189.342381 
L 129.561851 185.087285 
L 129.885857 182.422606 
L 130.209864 183.290436 
L 130.53387 185.087285 
L 130.857877 188.440776 
L 131.50589 159.768684 
L 131.829897 147.182032 
L 132.47791 109.333355 
L 132.801916 102.855967 
L 133.125923 88.86047 
L 134.097942 61.483997 
L 134.421949 59.151201 
L 134.745955 63.346993 
L 135.069962 70.002769 
L 135.393968 68.681179 
L 135.717975 73.696614 
L 136.041981 69.37253 
L 136.365988 71.775945 
L 136.689995 75.891665 
L 137.014001 83.499511 
L 137.662014 113.964653 
L 137.986021 120.71076 
L 138.310027 122.072312 
L 138.634034 146.395289 
L 138.95804 147.52744 
L 139.282047 146.966983 
L 139.606053 148.852155 
L 139.93006 147.746565 
L 140.254066 143.975092 
L 141.226086 107.22737 
L 141.550093 99.606744 
L 141.874099 81.68416 
L 142.198106 79.308682 
L 142.522112 84.96263 
L 142.846119 83.499511 
L 143.170125 86.138752 
L 143.494132 84.438486 
L 143.818138 87.192812 
L 144.142145 86.715684 
L 144.466151 91.668592 
L 144.790158 90.961033 
L 145.114164 91.307709 
L 146.086184 73.696614 
L 146.410191 66.64878 
L 146.734197 64.991438 
L 147.058204 59.828475 
L 147.38221 57.971134 
L 147.706217 56.998242 
L 148.030223 53.568 
L 148.35423 57.216382 
L 149.326249 77.706299 
L 149.650256 80.306997 
L 149.974262 78.731565 
L 150.298269 81.68416 
L 150.622275 88.130801 
L 150.946282 97.659251 
L 151.594295 124.01815 
L 151.918302 131.849841 
L 152.242308 133.05634 
L 153.214328 149.435661 
L 153.862341 168.457949 
L 154.186347 170.559665 
L 154.83436 154.400965 
L 155.158367 150.719374 
L 155.482373 158.655052 
L 155.80638 161.922684 
L 156.130386 168.872155 
L 156.454393 172.333512 
L 156.7784 179.043872 
L 157.102406 167.449048 
L 157.426413 168.457949 
L 157.750419 171.450733 
L 158.074426 176.344253 
L 158.398432 185.708007 
L 158.722439 177.309703 
L 159.046445 176.442069 
L 159.370452 173.934684 
L 159.694458 173.05113 
L 160.018465 157.94534 
L 160.666478 165.763585 
L 160.990484 160.702581 
L 161.962504 122.09923 
L 162.286511 114.404225 
L 162.934524 104.099801 
L 163.25853 106.3469 
L 163.582537 99.710527 
L 163.906543 95.880774 
L 164.23055 85.724552 
L 164.554556 87.320533 
L 164.878563 99.186749 
L 165.202569 96.700745 
L 165.526576 95.880774 
L 166.174589 86.464351 
L 166.498596 78.137566 
L 166.822602 79.032045 
L 167.146609 73.696614 
L 167.470615 73.974174 
L 167.794622 76.461534 
L 168.118628 64.319931 
L 168.442635 65.74064 
L 168.766641 68.319172 
L 169.090648 75.428853 
L 169.414654 75.106181 
L 169.738661 84.123105 
L 170.062667 80.608913 
L 170.71068 88.130801 
L 171.358694 99.308501 
L 171.6827 103.453495 
L 172.006707 104.939039 
L 172.330713 104.505718 
L 172.65472 117.910859 
L 172.978726 121.028752 
L 173.302733 133.663413 
L 173.626739 139.349347 
L 173.950746 139.466403 
L 174.274752 138.079741 
L 174.922765 133.40679 
L 175.246772 135.084042 
L 175.570778 140.683075 
L 175.894785 142.641743 
L 176.218792 146.410821 
L 176.542798 143.017098 
L 176.866805 144.718404 
L 177.190811 148.247038 
L 177.514818 147.348644 
L 177.838824 151.389137 
L 178.162831 171.482031 
L 178.486837 175.947118 
L 178.810844 170.434664 
L 179.13485 171.725581 
L 179.458857 168.691351 
L 179.782863 172.069542 
L 180.10687 167.232586 
L 180.430876 172.285746 
L 180.754883 169.13401 
L 181.078889 171.317127 
L 181.402896 161.559614 
L 181.726903 156.156274 
L 182.050909 159.340851 
L 182.374916 158.928985 
L 182.698922 164.613675 
L 183.022929 158.805288 
L 183.346935 164.810359 
L 183.670942 162.499325 
L 183.994948 169.967556 
L 184.318955 165.190316 
L 184.966968 193.123301 
L 185.290974 191.462736 
L 185.614981 187.979956 
L 185.938987 188.646092 
L 186.262994 186.04405 
L 186.587001 190.514466 
L 186.911007 190.168851 
L 187.235014 189.342381 
L 188.207033 159.962105 
L 188.53104 163.5565 
L 188.855046 173.560606 
L 189.179053 177.860727 
L 189.503059 179.656396 
L 189.827066 183.343829 
L 190.151072 175.79274 
L 190.475079 176.671186 
L 190.799085 192.572709 
L 191.123092 193.922944 
L 191.447099 196.156831 
L 191.771105 207.512059 
L 192.095112 194.120309 
L 192.419118 186.321005 
L 192.743125 185.099069 
L 193.067131 176.536262 
L 193.391138 187.812386 
L 194.039151 169.704808 
L 194.687164 172.653427 
L 195.01117 168.215902 
L 195.335177 174.256579 
L 195.659183 172.492288 
L 195.98319 168.620428 
L 196.307197 168.761499 
L 196.631203 164.64872 
L 196.95521 172.592135 
L 197.279216 172.592135 
L 197.603223 174.653951 
L 197.927229 165.373891 
L 198.251236 160.444035 
L 198.575242 159.315921 
L 198.899249 161.105776 
L 199.223255 168.023523 
L 199.547262 170.434664 
L 200.195275 177.299777 
L 200.519281 177.489831 
L 200.843288 176.563843 
L 201.167295 176.618101 
L 201.491301 176.508372 
L 201.815308 169.13401 
L 202.139314 166.900124 
L 202.463321 165.763585 
L 202.787327 162.236525 
L 203.43534 152.936696 
L 203.759347 156.739543 
L 204.083353 156.817009 
L 204.40736 156.183381 
L 204.731366 154.153943 
L 205.055373 159.210336 
L 205.379379 155.854224 
L 205.703386 163.09568 
L 206.027392 157.419728 
L 206.351399 156.817009 
L 206.675406 157.489527 
L 206.999412 147.903488 
L 207.323419 149.679404 
L 207.647425 153.621681 
L 207.971432 160.384975 
L 208.295438 159.712783 
L 208.619445 164.810359 
L 208.943451 158.175061 
L 209.267458 162.720594 
L 209.591464 162.016045 
L 209.915471 167.068266 
L 210.239477 174.653951 
L 210.563484 189.739025 
L 210.88749 184.133112 
L 211.535504 153.572069 
L 212.183517 141.509905 
L 212.83153 124.376213 
L 213.479543 105.226399 
L 213.803549 83.966316 
L 214.127556 77.894449 
L 214.451562 77.972475 
L 214.775569 85.587847 
L 215.099575 84.123105 
L 215.423582 80.306997 
L 215.747588 88.2904 
L 216.071595 84.756293 
L 216.395602 84.209866 
L 216.719608 94.521286 
L 217.367621 94.476713 
L 217.691628 92.354545 
L 218.339641 79.826591 
L 218.663647 80.608913 
L 218.987654 76.80987 
L 219.31166 74.819863 
L 219.635667 75.891665 
L 219.959673 69.20362 
L 220.28368 66.507824 
L 220.607686 64.818028 
L 221.2557 71.978178 
L 221.579706 73.421182 
L 221.903713 73.968917 
L 222.227719 74.264898 
L 222.551726 75.685608 
L 222.875732 83.110507 
L 223.847752 118.699614 
L 224.171758 124.655132 
L 224.495765 128.098275 
L 224.819771 139.792606 
L 225.143778 146.713653 
L 225.467784 156.673615 
L 225.791791 162.662866 
L 226.115797 165.002521 
L 226.439804 156.776653 
L 226.763811 145.584523 
L 227.087817 147.52744 
L 227.411824 147.980787 
L 227.73583 157.489527 
L 228.059837 156.169246 
L 228.383843 161.310003 
L 229.031856 175.876912 
L 229.355863 177.957886 
L 229.679869 176.97861 
L 230.003876 183.720182 
L 230.327882 177.145068 
L 230.651889 184.756976 
L 230.975895 179.388956 
L 231.299902 190.403528 
L 231.947915 179.414127 
L 232.271922 176.334264 
L 232.595928 176.508372 
L 232.919935 178.516414 
L 233.243941 176.671186 
L 233.567948 179.656396 
L 233.891954 173.060007 
L 234.539967 166.233178 
L 234.863974 166.394181 
L 235.18798 175.912235 
L 235.511987 174.040154 
L 235.835993 184.411682 
L 236.16 185.393419 
L 236.484007 185.393419 
L 236.808013 176.563843 
L 237.13202 187.453305 
L 237.780033 196.422381 
L 238.104039 196.100351 
L 239.076059 172.492288 
L 239.724072 151.746344 
L 240.048078 156.739543 
L 240.696091 142.553105 
L 241.020098 151.049686 
L 241.344105 151.049686 
L 241.668111 148.021401 
L 241.992118 155.012446 
L 242.316124 157.50177 
L 242.964137 171.761099 
L 243.288144 170.956726 
L 243.61215 172.785353 
L 243.936157 173.798595 
L 244.260163 169.807623 
L 244.58417 163.354568 
L 244.908176 172.069542 
L 245.232183 173.81045 
L 245.556189 176.97861 
L 245.880196 169.095034 
L 246.204203 168.607448 
L 246.528209 160.52227 
L 246.852216 165.39978 
L 247.176222 164.136241 
L 247.500229 168.607448 
L 247.824235 163.189725 
L 248.796255 131.206941 
L 249.120261 131.018999 
L 249.444268 130.349999 
L 249.768274 139.312424 
L 250.092281 138.496983 
L 250.416287 139.854327 
L 250.740294 134.752098 
L 251.0643 139.312424 
L 251.388307 136.900078 
L 251.712314 143.752984 
L 252.03632 147.463946 
L 252.360327 156.183381 
L 252.684333 158.487481 
L 253.00834 154.903326 
L 253.332346 157.355643 
L 253.656353 150.747743 
L 253.980359 146.809885 
L 254.304366 148.761889 
L 254.628372 157.296598 
L 254.952379 158.541065 
L 255.276385 153.479727 
L 255.600392 154.361535 
L 255.924398 157.635097 
L 256.248405 157.908165 
L 256.572412 148.852155 
L 257.220425 163.868153 
L 257.544431 160.384975 
L 257.868438 167.70388 
L 258.192444 171.079653 
L 258.516451 177.489831 
L 258.840457 174.420916 
L 259.164464 173.071076 
L 259.48847 179.363179 
L 259.812477 179.28198 
L 260.136483 180.425902 
L 260.784496 200.55763 
L 261.43251 188.717268 
L 261.756516 193.922944 
L 262.080523 189.697558 
L 262.728536 189.428248 
L 263.052542 190.086562 
L 263.376549 176.773986 
L 263.700555 172.6898 
L 264.024562 158.175061 
L 264.348568 150.052133 
L 264.672575 155.854224 
L 264.996581 152.608054 
L 265.320588 164.069985 
L 265.644594 164.069985 
L 266.292608 168.177866 
L 266.616614 176.273513 
L 266.940621 181.528477 
L 267.264627 180.412206 
L 267.588634 187.109837 
L 267.91264 184.962613 
L 268.560653 172.542489 
L 268.88466 173.515494 
L 269.208666 162.313156 
L 269.532673 159.063506 
L 270.180686 142.077796 
L 270.504692 149.813224 
L 271.152705 145.990669 
L 271.476712 148.395782 
L 272.124725 142.279332 
L 272.448732 146.435268 
L 272.772738 148.092241 
L 273.420751 160.133267 
L 273.744758 160.319312 
L 274.068764 153.879282 
L 274.392771 157.881139 
L 274.716777 149.956085 
L 275.040784 150.96389 
L 275.36479 153.021203 
L 276.012803 160.691402 
L 276.33681 161.85113 
L 276.660817 160.691402 
L 276.984823 153.980191 
L 277.30883 162.936777 
L 277.632836 164.975341 
L 277.956843 180.353838 
L 278.280849 175.577492 
L 278.604856 180.353838 
L 278.928862 177.145068 
L 279.252869 176.015601 
L 279.576875 178.299979 
L 279.900882 181.528477 
L 280.224888 179.462733 
L 280.548895 180.452311 
L 280.872901 175.804918 
L 281.196908 167.70388 
L 281.520915 172.970393 
L 281.844921 172.178894 
L 282.168928 176.211324 
L 282.492934 173.265499 
L 282.816941 174.577989 
L 283.140947 168.001183 
L 283.464954 168.14509 
L 283.78896 172.970393 
L 284.112967 172.264572 
L 284.436973 168.948093 
L 284.76098 159.88683 
L 285.084986 158.086768 
L 285.408993 149.578296 
L 286.381013 165.763585 
L 286.705019 174.084463 
L 287.029026 173.071076 
L 287.353032 165.763585 
L 287.677039 171.6053 
L 288.001045 181.528477 
L 288.325052 181.528477 
L 288.649058 190.189671 
L 288.973065 187.109837 
L 289.297071 180.425902 
L 289.945084 161.803137 
L 290.269091 156.776653 
L 290.593097 154.298209 
L 290.917104 158.928985 
L 291.241111 146.461205 
L 291.565117 148.247038 
L 291.889124 151.214299 
L 292.21313 150.182006 
L 292.537137 150.54231 
L 292.861143 146.01499 
L 293.18515 145.584523 
L 293.509156 147.348644 
L 293.833163 152.119788 
L 294.157169 151.389137 
L 294.481176 149.156593 
L 294.805182 157.791904 
L 295.129189 156.861058 
L 295.453195 155.169578 
L 295.777202 147.52744 
L 296.101208 144.632365 
L 296.425215 150.37705 
L 296.749222 148.063416 
L 297.073228 147.170286 
L 297.397235 155.854224 
L 297.721241 153.684569 
L 298.045248 146.582966 
L 298.369254 146.05747 
L 298.693261 146.966983 
L 299.017267 152.910679 
L 299.341274 155.854224 
L 299.66528 156.909331 
L 299.989287 158.487481 
L 300.313293 158.779139 
L 300.6373 157.179347 
L 300.961306 158.487481 
L 301.285313 155.200103 
L 301.60932 155.169578 
L 301.933326 160.989075 
L 302.257333 159.063506 
L 302.581339 160.16319 
L 303.229352 149.956085 
L 303.553359 152.162502 
L 303.877365 151.575182 
L 304.201372 146.924049 
L 304.525378 151.389137 
L 304.849385 152.684563 
L 305.173391 159.457628 
L 305.497398 159.712783 
L 306.145411 180.546402 
L 306.469418 186.282969 
L 306.793424 188.115066 
L 307.117431 194.157434 
L 307.441437 194.436527 
L 307.765444 188.478966 
L 308.08945 185.613018 
L 308.413457 180.477485 
L 308.737463 177.197881 
L 309.06147 162.856293 
L 309.385476 160.52227 
L 309.709483 145.114667 
L 310.033489 147.01276 
L 310.357496 138.627629 
L 310.681502 138.627629 
L 311.005509 138.963268 
L 311.977529 157.419728 
L 312.301535 162.936777 
L 312.949548 165.900671 
L 313.273555 164.502394 
L 313.597561 159.423907 
L 313.921568 171.178124 
L 314.245574 173.317929 
L 314.569581 179.749074 
L 314.893587 176.136884 
L 315.217594 174.410863 
L 315.5416 176.242602 
L 315.865607 170.019329 
L 316.189614 171.789968 
L 316.51362 178.791628 
L 316.837627 181.528477 
L 317.161633 176.920278 
L 317.48564 185.999119 
L 317.809646 190.33827 
L 318.133653 185.999119 
L 318.457659 195.212724 
L 318.781666 189.418614 
L 319.105672 194.365604 
L 319.429679 193.388158 
L 319.753685 188.717268 
L 320.077692 189.19425 
L 320.401698 190.723442 
L 320.725705 179.783625 
L 321.049711 184.984627 
L 321.697725 183.223947 
L 322.345738 177.309703 
L 322.669744 174.68201 
L 322.993751 173.862705 
L 323.96577 189.848837 
L 324.289777 173.789349 
L 324.613783 170.661701 
L 325.261796 182.356679 
L 325.585803 184.737759 
L 325.909809 191.555761 
L 326.557823 195.71688 
L 326.881829 184.737759 
L 327.853849 175.234789 
L 328.177855 181.528477 
L 328.501862 180.834579 
L 328.825868 180.800867 
L 329.149875 177.799851 
L 329.473881 173.043853 
L 329.797888 171.236156 
L 330.121894 172.069542 
L 330.769907 177.145068 
L 331.093914 192.531729 
L 331.741927 183.460948 
L 332.065934 188.403004 
L 332.38994 181.528477 
L 332.713947 186.385769 
L 333.037953 193.890155 
L 333.36196 193.760713 
L 333.685966 194.633044 
L 334.009973 198.73569 
L 334.333979 189.342381 
L 334.981992 178.549697 
L 335.305999 180.577579 
L 335.630005 189.016801 
L 335.954012 184.351301 
L 336.278019 181.528477 
L 336.602025 181.528477 
L 336.926032 182.440761 
L 337.250038 177.18742 
L 337.574045 174.549069 
L 338.222058 182.422606 
L 338.546064 179.63669 
L 339.194077 188.255956 
L 339.84209 172.359101 
L 340.166097 173.798595 
L 340.490103 183.570748 
L 340.81411 183.460948 
L 341.138116 174.117353 
L 341.462123 182.450117 
L 341.78613 180.643158 
L 342.434143 174.267073 
L 343.082156 191.266987 
L 343.406162 201.101918 
L 343.730169 194.108861 
L 344.054175 194.365604 
L 344.378182 200.249287 
L 344.702188 199.40636 
L 345.026195 204.808241 
L 345.350201 202.300109 
L 345.674208 206.95225 
L 345.998214 207.718796 
L 346.322221 209.525025 
L 346.646228 205.912567 
L 346.970234 206.465671 
L 347.294241 213.652301 
L 347.618247 209.636309 
L 347.942254 202.822289 
L 348.26626 206.465671 
L 348.590267 205.669939 
L 348.914273 197.703257 
L 349.23828 201.101918 
L 349.562286 190.792383 
L 349.886293 190.605234 
L 350.210299 192.420585 
L 350.534306 186.814353 
L 351.182319 192.815226 
L 351.506326 185.018182 
L 351.830332 183.256552 
L 352.154339 185.052395 
L 352.478345 180.684723 
L 353.126358 182.372232 
L 353.450365 184.951711 
L 353.774371 183.208101 
L 354.098378 182.364383 
L 354.422384 180.692572 
L 354.746391 183.208101 
L 355.070397 184.766672 
L 355.394404 189.623963 
L 355.71841 190.638696 
L 356.042417 188.914221 
L 357.338443 167.70388 
L 357.986456 172.663377 
L 358.310463 173.432992 
L 358.634469 171.414378 
L 358.958476 178.456345 
L 359.282482 173.714574 
L 359.606489 178.375499 
L 359.930495 188.653931 
L 360.254502 192.563902 
L 360.578508 201.676434 
L 360.902515 195.970245 
L 361.226522 192.661561 
L 361.550528 196.704814 
L 361.874535 198.452761 
L 362.198541 188.717268 
L 362.846554 178.533148 
L 363.170561 175.731065 
L 363.494567 170.614321 
L 363.818574 172.220282 
L 364.14258 177.249435 
L 364.466587 177.215203 
L 364.790593 173.256856 
L 365.1146 167.241132 
L 365.438606 157.159695 
L 365.762613 163.09568 
L 366.086619 179.194454 
L 366.410626 173.934684 
L 366.734633 173.714574 
L 367.058639 161.955037 
L 367.382646 157.928911 
L 367.706652 159.521975 
L 368.354665 170.241728 
L 368.678672 177.309703 
L 369.002678 180.668574 
L 369.326685 171.258776 
L 369.650691 180.707839 
L 369.974698 182.320194 
L 370.298704 179.17407 
L 370.622711 183.104967 
L 370.946717 177.569892 
L 371.594731 172.663377 
L 371.918737 174.209573 
L 372.242744 169.218904 
L 372.56675 167.964721 
L 372.890757 165.03246 
L 373.214763 149.712059 
L 373.53877 148.695058 
L 373.862776 147.256335 
L 374.186783 147.572207 
L 374.510789 142.832833 
L 375.158802 123.850969 
L 375.482809 123.309396 
L 376.130822 104.952227 
L 376.778835 119.413349 
L 377.102842 127.117904 
L 377.426848 126.756737 
L 377.750855 132.06432 
L 378.074861 145.584523 
L 378.398868 144.948347 
L 378.722874 149.351575 
L 379.046881 163.09568 
L 379.370887 167.70388 
L 379.694894 176.220299 
L 380.0189 179.363179 
L 380.342907 180.090719 
L 380.99092 194.919362 
L 381.314927 196.973145 
L 381.96294 220.406632 
L 382.286946 216.858005 
L 382.610953 226.649612 
L 382.934959 226.268843 
L 383.258966 225.120082 
L 383.582972 225.120082 
L 383.906979 224.173847 
L 384.230985 219.560462 
L 384.554992 226.643317 
L 384.878998 226.823704 
L 385.203005 226.637424 
L 385.527011 223.8563 
L 385.851018 217.19805 
L 386.175024 223.8563 
L 386.499031 226.631895 
L 386.823038 231.178687 
L 387.147044 229.679812 
L 387.471051 235.64484 
L 387.795057 225.096907 
L 388.119064 224.579221 
L 388.44307 220.842177 
L 389.091083 229.45375 
L 389.41509 224.093687 
L 389.739096 221.553405 
L 390.063103 224.909112 
L 390.387109 231.272343 
L 390.711116 228.122492 
L 391.035122 232.048782 
L 391.359129 228.823154 
L 392.007142 218.504316 
L 392.331149 214.746824 
L 392.655155 213.828344 
L 392.979162 215.437868 
L 393.627175 186.920071 
L 393.951181 178.846093 
L 394.275188 167.981761 
L 394.599194 170.956726 
L 394.923201 171.978151 
L 395.247207 166.624887 
L 395.571214 172.631459 
L 395.89522 170.956726 
L 396.543234 163.296037 
L 397.191247 174.480643 
L 397.515253 167.981761 
L 397.83926 164.871523 
L 398.163266 165.34518 
L 398.487273 163.39162 
L 398.487273 163.39162 
" clip-path="url(#pa716d07191)" style="fill: none; stroke: #e69f00; stroke-width: 1.5; stroke-linecap: square"/>
   </g>
   <g id="patch_3">
    <path d="M 57.6 307.584 
L 57.6 41.472 
" style="fill: none; stroke: #000000; stroke-width: 0.8; stroke-linejoin: miter; stroke-linecap: square"/>
   </g>
   <g id="patch_4">
    <path d="M 414.72 307.584 
L 414.72 41.472 
" style="fill: none; stroke: #000000; stroke-width: 0.8; stroke-linejoin: miter; stroke-linecap: square"/>
   </g>
   <g id="patch_5">
    <path d="M 57.6 307.584 
L 414.72 307.584 
" style="fill: none; stroke: #000000; stroke-width: 0.8; stroke-linejoin: miter; stroke-linecap: square"/>
   </g>
   <g id="patch_6">
    <path d="M 57.6 41.472 
L 414.72 41.472 
" style="fill: none; stroke: #000000; stroke-width: 0.8; stroke-linejoin: miter; stroke-linecap: square"/>
   </g>
   <g id="text_18">
    <!-- GC skew of BGC0001812.1_0 -->
    <g transform="translate(148.72125 35.472) scale(0.12 -0.12)">
     <defs>
      <path id="DejaVuSans-47" d="M 3809 666 
L 3809 1919 
L 2778 1919 
L 2778 2438 
L 4434 2438 
L 4434 434 
Q 4069 175 3628 42 
Q 3188 -91 2688 -91 
Q 1594 -91 976 548 
Q 359 1188 359 2328 
Q 359 3472 976 4111 
Q 1594 4750 2688 4750 
Q 3144 4750 3555 4637 
Q 3966 4525 4313 4306 
L 4313 3634 
Q 3963 3931 3569 4081 
Q 3175 4231 2741 4231 
Q 1884 4231 1454 3753 
Q 1025 3275 1025 2328 
Q 1025 1384 1454 906 
Q 1884 428 2741 428 
Q 3075 428 3337 486 
Q 3600 544 3809 666 
z
" transform="scale(0.015625)"/>
      <path id="DejaVuSans-43" d="M 4122 4306 
L 4122 3641 
Q 3803 3938 3442 4084 
Q 3081 4231 2675 4231 
Q 1875 4231 1450 3742 
Q 1025 3253 1025 2328 
Q 1025 1406 1450 917 
Q 1875 428 2675 428 
Q 3081 428 3442 575 
Q 3803 722 4122 1019 
L 4122 359 
Q 3791 134 3420 21 
Q 3050 -91 2638 -91 
Q 1578 -91 968 557 
Q 359 1206 359 2328 
Q 359 3453 968 4101 
Q 1578 4750 2638 4750 
Q 3056 4750 3426 4639 
Q 3797 4528 4122 4306 
z
" transform="scale(0.015625)"/>
      <path id="DejaVuSans-20" transform="scale(0.015625)"/>
      <path id="DejaVuSans-66" d="M 2375 4863 
L 2375 4384 
L 1825 4384 
Q 1516 4384 1395 4259 
Q 1275 4134 1275 3809 
L 1275 3500 
L 2222 3500 
L 2222 3053 
L 1275 3053 
L 1275 0 
L 697 0 
L 697 3053 
L 147 3053 
L 147 3500 
L 697 3500 
L 697 3744 
Q 697 4328 969 4595 
Q 1241 4863 1831 4863 
L 2375 4863 
z
" transform="scale(0.015625)"/>
      <path id="DejaVuSans-42" d="M 1259 2228 
L 1259 519 
L 2272 519 
Q 2781 519 3026 730 
Q 3272 941 3272 1375 
Q 3272 1813 3026 2020 
Q 2781 2228 2272 2228 
L 1259 2228 
z
M 1259 4147 
L 1259 2741 
L 2194 2741 
Q 2656 2741 2882 2914 
Q 3109 3088 3109 3444 
Q 3109 3797 2882 3972 
Q 2656 4147 2194 4147 
L 1259 4147 
z
M 628 4666 
L 2241 4666 
Q 2963 4666 3353 4366 
Q 3744 4066 3744 3513 
Q 3744 3084 3544 2831 
Q 3344 2578 2956 2516 
Q 3422 2416 3680 2098 
Q 3938 1781 3938 1306 
Q 3938 681 3513 340 
Q 3088 0 2303 0 
L 628 0 
L 628 4666 
z
" transform="scale(0.015625)"/>
      <path id="DejaVuSans-38" d="M 2034 2216 
Q 1584 2216 1326 1975 
Q 1069 1734 1069 1313 
Q 1069 891 1326 650 
Q 1584 409 2034 409 
Q 2484 409 2743 651 
Q 3003 894 3003 1313 
Q 3003 1734 2745 1975 
Q 2488 2216 2034 2216 
z
M 1403 2484 
Q 997 2584 770 2862 
Q 544 3141 544 3541 
Q 544 4100 942 4425 
Q 1341 4750 2034 4750 
Q 2731 4750 3128 4425 
Q 3525 4100 3525 3541 
Q 3525 3141 3298 2862 
Q 3072 2584 2669 2484 
Q 3125 2378 3379 2068 
Q 3634 1759 3634 1313 
Q 3634 634 3220 271 
Q 2806 -91 2034 -91 
Q 1263 -91 848 271 
Q 434 634 434 1313 
Q 434 1759 690 2068 
Q 947 2378 1403 2484 
z
M 1172 3481 
Q 1172 3119 1398 2916 
Q 1625 2713 2034 2713 
Q 2441 2713 2670 2916 
Q 2900 3119 2900 3481 
Q 2900 3844 2670 4047 
Q 2441 4250 2034 4250 
Q 1625 4250 1398 4047 
Q 1172 3844 1172 3481 
z
" transform="scale(0.015625)"/>
      <path id="DejaVuSans-5f" d="M 3263 -1063 
L 3263 -1509 
L -63 -1509 
L -63 -1063 
L 3263 -1063 
z
" transform="scale(0.015625)"/>
     </defs>
     <use xlink:href="#DejaVuSans-47"/>
     <use xlink:href="#DejaVuSans-43" x="77.490234"/>
     <use xlink:href="#DejaVuSans-20" x="147.314453"/>
     <use xlink:href="#DejaVuSans-73" x="179.101562"/>
     <use xlink:href="#DejaVuSans-6b" x="231.201172"/>
     <use xlink:href="#DejaVuSans-65" x="285.486328"/>
     <use xlink:href="#DejaVuSans-77" x="347.009766"/>
     <use xlink:href="#DejaVuSans-20" x="428.796875"/>
     <use xlink:href="#DejaVuSans-6f" x="460.583984"/>
     <use xlink:href="#DejaVuSans-66" x="521.765625"/>
     <use xlink:href="#DejaVuSans-20" x="556.970703"/>
     <use xlink:href="#DejaVuSans-42" x="588.757812"/>
     <use xlink:href="#DejaVuSans-47" x="655.611328"/>
     <use xlink:href="#DejaVuSans-43" x="733.101562"/>
     <use xlink:href="#DejaVuSans-30" x="802.925781"/>
     <use xlink:href="#DejaVuSans-30" x="866.548828"/>
     <use xlink:href="#DejaVuSans-30" x="930.171875"/>
     <use xlink:href="#DejaVuSans-31" x="993.794922"/>
     <use xlink:href="#DejaVuSans-38" x="1057.417969"/>
     <use xlink:href="#DejaVuSans-31" x="1121.041016"/>
     <use xlink:href="#DejaVuSans-32" x="1184.664062"/>
     <use xlink:href="#DejaVuSans-2e" x="1248.287109"/>
     <use xlink:href="#DejaVuSans-31" x="1280.074219"/>
     <use xlink:href="#DejaVuSans-5f" x="1343.697266"/>
     <use xlink:href="#DejaVuSans-30" x="1393.697266"/>
    </g>
   </g>
  </g>
  <g id="axes_2">
   <g id="matplotlib.axis_3">
    <g id="ytick_8">
     <g id="line2d_18">
      <defs>
       <path id="mbb0026315e" d="M 0 0 
L 3.5 0 
" style="stroke: #000000; stroke-width: 0.8"/>
      </defs>
      <g>
       <use xlink:href="#mbb0026315e" x="414.72" y="294.777356" style="stroke: #000000; stroke-width: 0.8"/>
      </g>
     </g>
     <g id="text_19">
      <!-- −75 -->
      <g transform="translate(421.72 298.576575) scale(0.1 -0.1)">
       <use xlink:href="#DejaVuSans-2212"/>
       <use xlink:href="#DejaVuSans-37" x="83.789062"/>
       <use xlink:href="#DejaVuSans-35" x="147.412109"/>
      </g>
     </g>
    </g>
    <g id="ytick_9">
     <g id="line2d_19">
      <g>
       <use xlink:href="#mbb0026315e" x="414.72" y="262.124924" style="stroke: #000000; stroke-width: 0.8"/>
      </g>
     </g>
     <g id="text_20">
      <!-- −50 -->
      <g transform="translate(421.72 265.924143) scale(0.1 -0.1)">
       <use xlink:href="#DejaVuSans-2212"/>
       <use xlink:href="#DejaVuSans-35" x="83.789062"/>
       <use xlink:href="#DejaVuSans-30" x="147.412109"/>
      </g>
     </g>
    </g>
    <g id="ytick_10">
     <g id="line2d_20">
      <g>
       <use xlink:href="#mbb0026315e" x="414.72" y="229.472493" style="stroke: #000000; stroke-width: 0.8"/>
      </g>
     </g>
     <g id="text_21">
      <!-- −25 -->
      <g transform="translate(421.72 233.271711) scale(0.1 -0.1)">
       <use xlink:href="#DejaVuSans-2212"/>
       <use xlink:href="#DejaVuSans-32" x="83.789062"/>
       <use xlink:href="#DejaVuSans-35" x="147.412109"/>
      </g>
     </g>
    </g>
    <g id="ytick_11">
     <g id="line2d_21">
      <g>
       <use xlink:href="#mbb0026315e" x="414.72" y="196.820061" style="stroke: #000000; stroke-width: 0.8"/>
      </g>
     </g>
     <g id="text_22">
      <!-- 0 -->
      <g transform="translate(421.72 200.61928) scale(0.1 -0.1)">
       <use xlink:href="#DejaVuSans-30"/>
      </g>
     </g>
    </g>
    <g id="ytick_12">
     <g id="line2d_22">
      <g>
       <use xlink:href="#mbb0026315e" x="414.72" y="164.167629" style="stroke: #000000; stroke-width: 0.8"/>
      </g>
     </g>
     <g id="text_23">
      <!-- 25 -->
      <g transform="translate(421.72 167.966848) scale(0.1 -0.1)">
       <use xlink:href="#DejaVuSans-32"/>
       <use xlink:href="#DejaVuSans-35" x="63.623047"/>
      </g>
     </g>
    </g>
    <g id="ytick_13">
     <g id="line2d_23">
      <g>
       <use xlink:href="#mbb0026315e" x="414.72" y="131.515198" style="stroke: #000000; stroke-width: 0.8"/>
      </g>
     </g>
     <g id="text_24">
      <!-- 50 -->
      <g transform="translate(421.72 135.314416) scale(0.1 -0.1)">
       <use xlink:href="#DejaVuSans-35"/>
       <use xlink:href="#DejaVuSans-30" x="63.623047"/>
      </g>
     </g>
    </g>
    <g id="ytick_14">
     <g id="line2d_24">
      <g>
       <use xlink:href="#mbb0026315e" x="414.72" y="98.862766" style="stroke: #000000; stroke-width: 0.8"/>
      </g>
     </g>
     <g id="text_25">
      <!-- 75 -->
      <g transform="translate(421.72 102.661985) scale(0.1 -0.1)">
       <use xlink:href="#DejaVuSans-37"/>
       <use xlink:href="#DejaVuSans-35" x="63.623047"/>
      </g>
     </g>
    </g>
    <g id="ytick_15">
     <g id="line2d_25">
      <g>
       <use xlink:href="#mbb0026315e" x="414.72" y="66.210334" style="stroke: #000000; stroke-width: 0.8"/>
      </g>
     </g>
     <g id="text_26">
      <!-- 100 -->
      <g transform="translate(421.72 70.009553) scale(0.1 -0.1)">
       <use xlink:href="#DejaVuSans-31"/>
       <use xlink:href="#DejaVuSans-30" x="63.623047"/>
       <use xlink:href="#DejaVuSans-30" x="127.246094"/>
      </g>
     </g>
    </g>
    <g id="text_27">
     <!-- Cummulative Skew -->
     <g transform="translate(454.423125 222.578781) rotate(-90) scale(0.1 -0.1)">
      <defs>
       <path id="DejaVuSans-75" d="M 544 1381 
L 544 3500 
L 1119 3500 
L 1119 1403 
Q 1119 906 1312 657 
Q 1506 409 1894 409 
Q 2359 409 2629 706 
Q 2900 1003 2900 1516 
L 2900 3500 
L 3475 3500 
L 3475 0 
L 2900 0 
L 2900 538 
Q 2691 219 2414 64 
Q 2138 -91 1772 -91 
Q 1169 -91 856 284 
Q 544 659 544 1381 
z
M 1991 3584 
L 1991 3584 
z
" transform="scale(0.015625)"/>
       <path id="DejaVuSans-6d" d="M 3328 2828 
Q 3544 3216 3844 3400 
Q 4144 3584 4550 3584 
Q 5097 3584 5394 3201 
Q 5691 2819 5691 2113 
L 5691 0 
L 5113 0 
L 5113 2094 
Q 5113 2597 4934 2840 
Q 4756 3084 4391 3084 
Q 3944 3084 3684 2787 
Q 3425 2491 3425 1978 
L 3425 0 
L 2847 0 
L 2847 2094 
Q 2847 2600 2669 2842 
Q 2491 3084 2119 3084 
Q 1678 3084 1418 2786 
Q 1159 2488 1159 1978 
L 1159 0 
L 581 0 
L 581 3500 
L 1159 3500 
L 1159 2956 
Q 1356 3278 1631 3431 
Q 1906 3584 2284 3584 
Q 2666 3584 2933 3390 
Q 3200 3197 3328 2828 
z
" transform="scale(0.015625)"/>
       <path id="DejaVuSans-6c" d="M 603 4863 
L 1178 4863 
L 1178 0 
L 603 0 
L 603 4863 
z
" transform="scale(0.015625)"/>
       <path id="DejaVuSans-61" d="M 2194 1759 
Q 1497 1759 1228 1600 
Q 959 1441 959 1056 
Q 959 750 1161 570 
Q 1363 391 1709 391 
Q 2188 391 2477 730 
Q 2766 1069 2766 1631 
L 2766 1759 
L 2194 1759 
z
M 3341 1997 
L 3341 0 
L 2766 0 
L 2766 531 
Q 2569 213 2275 61 
Q 1981 -91 1556 -91 
Q 1019 -91 701 211 
Q 384 513 384 1019 
Q 384 1609 779 1909 
Q 1175 2209 1959 2209 
L 2766 2209 
L 2766 2266 
Q 2766 2663 2505 2880 
Q 2244 3097 1772 3097 
Q 1472 3097 1187 3025 
Q 903 2953 641 2809 
L 641 3341 
Q 956 3463 1253 3523 
Q 1550 3584 1831 3584 
Q 2591 3584 2966 3190 
Q 3341 2797 3341 1997 
z
" transform="scale(0.015625)"/>
       <path id="DejaVuSans-76" d="M 191 3500 
L 800 3500 
L 1894 563 
L 2988 3500 
L 3597 3500 
L 2284 0 
L 1503 0 
L 191 3500 
z
" transform="scale(0.015625)"/>
      </defs>
      <use xlink:href="#DejaVuSans-43"/>
      <use xlink:href="#DejaVuSans-75" x="69.824219"/>
      <use xlink:href="#DejaVuSans-6d" x="133.203125"/>
      <use xlink:href="#DejaVuSans-6d" x="230.615234"/>
      <use xlink:href="#DejaVuSans-75" x="328.027344"/>
      <use xlink:href="#DejaVuSans-6c" x="391.40625"/>
      <use xlink:href="#DejaVuSans-61" x="419.189453"/>
      <use xlink:href="#DejaVuSans-74" x="480.46875"/>
      <use xlink:href="#DejaVuSans-69" x="519.677734"/>
      <use xlink:href="#DejaVuSans-76" x="547.460938"/>
      <use xlink:href="#DejaVuSans-65" x="606.640625"/>
      <use xlink:href="#DejaVuSans-20" x="668.164062"/>
      <use xlink:href="#DejaVuSans-53" x="699.951172"/>
      <use xlink:href="#DejaVuSans-6b" x="763.427734"/>
      <use xlink:href="#DejaVuSans-65" x="817.712891"/>
      <use xlink:href="#DejaVuSans-77" x="879.236328"/>
     </g>
    </g>
   </g>
   <g id="line2d_26">
    <path d="M 73.832727 196.907449 
L 74.804747 196.914337 
L 76.748786 196.51719 
L 78.044812 196.259769 
L 79.340838 196.314538 
L 80.312858 196.494997 
L 82.90491 196.555432 
L 83.87693 196.50386 
L 86.792989 196.23559 
L 88.089015 195.807568 
L 88.737028 195.433722 
L 90.033054 194.544243 
L 91.005073 194.1576 
L 91.977093 194.173615 
L 93.273119 194.528715 
L 94.245139 194.830948 
L 95.217158 194.863565 
L 96.189178 194.730316 
L 98.457224 194.164323 
L 99.429243 194.205168 
L 100.725269 194.413169 
L 101.697289 194.590955 
L 103.641328 194.583747 
L 106.557387 194.409892 
L 107.529407 194.52908 
L 109.149439 195.054922 
L 112.389505 196.331721 
L 117.897616 198.232442 
L 119.841655 199.035875 
L 120.489668 199.024818 
L 121.785694 198.596666 
L 124.701753 197.247836 
L 125.673772 197.042313 
L 127.293805 197.051094 
L 129.885857 196.807904 
L 130.857877 196.974614 
L 131.50589 197.267057 
L 132.153903 197.846976 
L 132.801916 198.755736 
L 133.773936 200.706337 
L 137.338008 209.131018 
L 137.986021 210.10494 
L 138.95804 211.044536 
L 140.254066 212.264112 
L 140.902079 213.197016 
L 141.550093 214.419868 
L 145.114164 222.569484 
L 147.38221 227.357301 
L 150.946282 235.167127 
L 151.594295 235.947007 
L 152.242308 236.398952 
L 153.214328 236.812982 
L 154.510354 236.975584 
L 156.130386 237.457234 
L 158.074426 237.664539 
L 160.018465 237.719839 
L 161.314491 238.053964 
L 161.962504 238.557299 
L 162.610517 239.464157 
L 163.906543 241.881229 
L 165.526576 245.291446 
L 168.766641 251.778187 
L 170.386674 255.108056 
L 171.358694 256.78421 
L 172.006707 257.512107 
L 172.978726 258.262893 
L 174.274752 258.705879 
L 177.190811 259.273431 
L 180.10687 259.596313 
L 182.050909 259.65115 
L 183.670942 259.902116 
L 185.290974 260.40772 
L 188.207033 261.435923 
L 191.123092 262.519518 
L 192.095112 262.499647 
L 194.687164 262.158686 
L 196.631203 262.613017 
L 197.603223 262.756096 
L 200.843288 262.627807 
L 201.815308 262.684202 
L 204.731366 262.691037 
L 207.323419 262.751362 
L 208.943451 262.642356 
L 210.239477 262.358428 
L 211.211497 262.234447 
L 211.85951 262.529387 
L 212.507523 263.163492 
L 213.155536 264.171595 
L 214.127556 266.304043 
L 216.395602 271.586419 
L 217.691628 274.17854 
L 220.28368 279.332487 
L 222.875732 285.128773 
L 223.523745 286.078174 
L 224.171758 286.686777 
L 224.819771 286.960828 
L 225.791791 287.056027 
L 227.087817 286.996279 
L 228.383843 286.965346 
L 230.651889 287.029315 
L 232.919935 287.239567 
L 236.808013 287.333683 
L 240.372085 288.104258 
L 241.992118 288.542811 
L 243.936157 288.797884 
L 248.148242 289.384502 
L 250.740294 289.792229 
L 253.00834 289.917105 
L 256.248405 290.038415 
L 259.812477 289.968442 
L 260.784496 290.103282 
L 263.700555 290.851056 
L 264.996581 291.33182 
L 266.292608 291.805482 
L 266.940621 291.931744 
L 267.91264 291.897993 
L 269.208666 291.823621 
L 270.180686 291.934869 
L 276.33681 293.146739 
L 279.900882 293.362082 
L 281.520915 293.075129 
L 282.816941 292.795387 
L 283.78896 292.835892 
L 285.084986 293.119568 
L 286.705019 293.745982 
L 288.001045 293.970571 
L 288.649058 293.966005 
L 290.269091 293.78164 
L 291.241111 293.868178 
L 294.481176 294.44836 
L 296.749222 294.416918 
L 300.961306 294.429382 
L 302.581339 294.182442 
L 304.525378 293.739999 
L 305.497398 293.666132 
L 307.441437 293.47276 
L 311.005509 293.365749 
L 312.625542 293.108949 
L 314.245574 293.040468 
L 320.077692 293.040451 
L 321.049711 292.885087 
L 322.993751 292.437987 
L 324.613783 292.343847 
L 328.177855 292.448755 
L 330.769907 292.862652 
L 332.065934 292.877492 
L 333.037953 292.892049 
L 334.657986 293.075712 
L 336.278019 293.191852 
L 338.870071 293.182576 
L 341.462123 293.425163 
L 342.758149 293.254996 
L 345.026195 292.894677 
L 345.998214 292.935953 
L 347.618247 293.197075 
L 348.914273 293.062437 
L 350.534306 292.849602 
L 352.802352 292.910936 
L 354.098378 292.691751 
L 355.71841 292.285395 
L 357.66245 292.169203 
L 359.606489 292.056463 
L 360.902515 292.030714 
L 362.198541 292.348747 
L 363.818574 292.755569 
L 364.790593 292.77973 
L 367.706652 292.555332 
L 368.678672 292.819096 
L 369.650691 293.128217 
L 371.918737 294.07203 
L 375.806815 295.080823 
L 381.96294 295.396817 
L 384.554992 295.124872 
L 387.471051 293.76333 
L 389.41509 292.669651 
L 391.683136 291.91879 
L 394.275188 291.541519 
L 396.219227 291.698433 
L 397.83926 292.218337 
L 398.487273 292.470387 
L 398.487273 292.470387 
" clip-path="url(#pa716d07191)" style="fill: none; stroke: #009e73; stroke-width: 1.5; stroke-linecap: square"/>
   </g>
   <g id="line2d_27">
    <path d="M 73.832727 196.742401 
L 74.804747 196.720991 
L 78.368819 196.523807 
L 80.636864 196.044011 
L 81.284878 196.019132 
L 82.256897 196.077823 
L 84.200936 196.597759 
L 85.172956 197.205817 
L 87.765008 198.923693 
L 88.737028 199.438231 
L 89.709047 200.132843 
L 90.681067 200.953405 
L 92.3011 201.917351 
L 93.273119 202.160694 
L 94.245139 202.247264 
L 96.189178 202.557855 
L 97.161198 202.870821 
L 97.809211 202.961491 
L 98.78123 202.870621 
L 99.429243 202.558948 
L 100.401263 202.078362 
L 101.049276 201.981251 
L 102.345302 201.995811 
L 103.641328 202.149553 
L 105.585367 202.675624 
L 106.557387 202.702216 
L 107.529407 202.605967 
L 108.501426 202.367799 
L 109.149439 202.249525 
L 110.769472 202.565495 
L 112.065498 202.831332 
L 113.037518 202.731606 
L 113.685531 202.535706 
L 117.897616 200.277774 
L 119.193642 199.551967 
L 120.165661 199.179514 
L 121.137681 199.10065 
L 124.05374 199.720704 
L 125.997779 200.18708 
L 127.617812 200.37218 
L 130.53387 200.384608 
L 130.857877 200.434842 
L 131.50589 200.209881 
L 131.829897 199.960272 
L 132.47791 199.034605 
L 133.125923 197.789404 
L 134.097942 195.378332 
L 135.717975 191.215824 
L 137.014001 188.123001 
L 137.662014 187.043745 
L 138.310027 186.169665 
L 140.578073 184.289785 
L 141.226086 183.289112 
L 141.874099 181.968144 
L 144.142145 177.037622 
L 145.762177 173.62806 
L 147.058204 170.278157 
L 149.326249 164.223096 
L 150.946282 160.72653 
L 151.594295 159.794367 
L 152.890321 158.506814 
L 153.538334 158.100207 
L 154.510354 157.789964 
L 155.80638 157.060201 
L 157.750419 156.612793 
L 160.018465 156.249683 
L 161.314491 155.591031 
L 161.962504 154.786713 
L 163.25853 152.668406 
L 164.878563 149.472059 
L 166.174589 146.884163 
L 168.442635 141.365751 
L 169.738661 138.290644 
L 171.034687 135.540942 
L 172.330713 133.25965 
L 173.302733 132.009784 
L 177.190811 128.43519 
L 177.838824 127.967756 
L 181.402896 127.05981 
L 183.022929 126.261868 
L 184.318955 125.799324 
L 184.966968 125.883588 
L 186.911007 126.215311 
L 187.55902 126.259417 
L 189.503059 125.77644 
L 191.123092 125.882988 
L 192.743125 126.330419 
L 195.335177 125.937998 
L 197.603223 125.383217 
L 200.195275 124.539771 
L 201.815308 124.312096 
L 203.111334 123.77491 
L 204.731366 122.824247 
L 206.999412 121.567644 
L 207.971432 120.979715 
L 209.915471 120.146377 
L 210.563484 120.156087 
L 210.88749 120.175016 
L 211.535504 119.869524 
L 212.183517 119.3307 
L 212.83153 118.552546 
L 213.479543 117.518812 
L 220.28368 102.409984 
L 222.227719 97.599885 
L 223.199739 95.496212 
L 224.171758 94.111133 
L 224.819771 93.419522 
L 225.467784 92.985878 
L 226.439804 92.548791 
L 227.73583 91.621967 
L 228.383843 91.290735 
L 229.355863 91.133355 
L 230.651889 91.107824 
L 231.299902 91.156774 
L 232.271922 91.127407 
L 234.539967 90.763163 
L 235.18798 90.61236 
L 235.835993 90.578893 
L 237.780033 90.827947 
L 238.428046 90.985501 
L 239.076059 90.919831 
L 240.048078 90.381436 
L 242.316124 88.81655 
L 243.288144 88.547406 
L 246.204203 87.868273 
L 247.500229 87.378099 
L 248.148242 87.02568 
L 252.03632 83.181072 
L 253.980359 81.98425 
L 254.952379 81.40296 
L 256.896418 80.243237 
L 258.192444 79.784829 
L 260.46049 79.665998 
L 261.108503 79.901315 
L 263.376549 80.246105 
L 264.024562 80.012152 
L 264.996581 79.386638 
L 266.292608 78.925172 
L 267.264627 78.878869 
L 268.236647 78.919431 
L 269.208666 78.656247 
L 269.856679 78.27395 
L 271.152705 77.255495 
L 273.744758 75.465069 
L 276.33681 73.965555 
L 277.632836 73.358507 
L 280.548895 73.179968 
L 282.168928 72.86912 
L 284.436973 72.34204 
L 285.408993 71.782205 
L 286.381013 71.296983 
L 288.325052 70.994735 
L 289.297071 71.090229 
L 289.945084 70.868196 
L 291.241111 70.071333 
L 294.805182 67.547928 
L 295.777202 66.93 
L 297.073228 65.942571 
L 298.045248 65.299669 
L 299.341274 64.396152 
L 303.877365 61.829864 
L 304.849385 61.149724 
L 305.821404 60.751406 
L 306.793424 60.826689 
L 308.08945 61.092473 
L 308.737463 61.053363 
L 309.385476 60.765004 
L 311.977529 58.677397 
L 313.921568 57.943667 
L 316.51362 57.567437 
L 318.133653 57.662951 
L 319.753685 58.051467 
L 321.049711 58.186437 
L 322.345738 58.180134 
L 323.641764 58.074668 
L 323.96577 58.135135 
L 325.261796 57.969318 
L 325.909809 58.065513 
L 326.881829 58.280498 
L 329.149875 58.176265 
L 330.769907 57.886495 
L 331.741927 58.027876 
L 333.685966 58.387106 
L 334.333979 58.568945 
L 336.926032 58.644342 
L 338.870071 58.556623 
L 339.518084 58.59162 
L 340.490103 58.483648 
L 341.78613 58.444097 
L 342.758149 58.359155 
L 343.730169 58.663604 
L 344.702188 59.022874 
L 346.970234 60.280015 
L 347.942254 60.872494 
L 349.23828 61.488966 
L 351.830332 61.917678 
L 354.098378 61.986447 
L 355.070397 62.016112 
L 356.366424 62.212399 
L 357.338443 62.03418 
L 358.634469 61.753539 
L 359.930495 61.703296 
L 361.226522 62.115781 
L 362.198541 62.401313 
L 363.170561 62.348482 
L 364.466587 62.139073 
L 365.1146 61.975128 
L 365.762613 61.664072 
L 366.734633 61.535135 
L 368.354665 60.855962 
L 372.56675 60.359101 
L 373.214763 60.007994 
L 374.510789 58.99232 
L 375.482809 57.792723 
L 377.426848 54.987571 
L 378.074861 54.366875 
L 378.722874 53.867189 
L 379.370887 53.632762 
L 380.342907 53.568 
L 380.99092 53.711056 
L 381.638933 54.009884 
L 383.582972 55.835838 
L 387.147044 59.320027 
L 388.119064 60.34281 
L 389.739096 61.898199 
L 392.979162 64.915199 
L 393.627175 65.095236 
L 394.275188 64.977292 
L 397.515253 64.105664 
L 398.487273 63.735192 
L 398.487273 63.735192 
" clip-path="url(#pa716d07191)" style="fill: none; stroke: #cc79a7; stroke-width: 1.5; stroke-linecap: square"/>
   </g>
   <g id="patch_7">
    <path d="M 57.6 307.584 
L 57.6 41.472 
" style="fill: none; stroke: #000000; stroke-width: 0.8; stroke-linejoin: miter; stroke-linecap: square"/>
   </g>
   <g id="patch_8">
    <path d="M 414.72 307.584 
L 414.72 41.472 
" style="fill: none; stroke: #000000; stroke-width: 0.8; stroke-linejoin: miter; stroke-linecap: square"/>
   </g>
   <g id="patch_9">
    <path d="M 57.6 307.584 
L 414.72 307.584 
" style="fill: none; stroke: #000000; stroke-width: 0.8; stroke-linejoin: miter; stroke-linecap: square"/>
   </g>
   <g id="patch_10">
    <path d="M 57.6 41.472 
L 414.72 41.472 
" style="fill: none; stroke: #000000; stroke-width: 0.8; stroke-linejoin: miter; stroke-linecap: square"/>
   </g>
   <g id="legend_1">
    <g id="patch_11">
     <path d="M 64.6 108.1845 
L 199.73125 108.1845 
Q 201.73125 108.1845 201.73125 106.1845 
L 201.73125 48.472 
Q 201.73125 46.472 199.73125 46.472 
L 64.6 46.472 
Q 62.6 46.472 62.6 48.472 
L 62.6 106.1845 
Q 62.6 108.1845 64.6 108.1845 
z
" style="fill: #ffffff; opacity: 0.8; stroke: #cccccc; stroke-linejoin: miter"/>
    </g>
    <g id="line2d_28">
     <path d="M 66.6 54.570438 
L 76.6 54.570438 
L 86.6 54.570438 
" style="fill: none; stroke: #56b4e9; stroke-width: 1.5; stroke-linecap: square"/>
    </g>
    <g id="text_28">
     <!-- GC skew -->
     <g transform="translate(94.6 58.070438) scale(0.1 -0.1)">
      <use xlink:href="#DejaVuSans-47"/>
      <use xlink:href="#DejaVuSans-43" x="77.490234"/>
      <use xlink:href="#DejaVuSans-20" x="147.314453"/>
      <use xlink:href="#DejaVuSans-73" x="179.101562"/>
      <use xlink:href="#DejaVuSans-6b" x="231.201172"/>
      <use xlink:href="#DejaVuSans-65" x="285.486328"/>
      <use xlink:href="#DejaVuSans-77" x="347.009766"/>
     </g>
    </g>
    <g id="line2d_29">
     <path d="M 66.6 69.248563 
L 76.6 69.248563 
L 86.6 69.248563 
" style="fill: none; stroke: #e69f00; stroke-width: 1.5; stroke-linecap: square"/>
    </g>
    <g id="text_29">
     <!-- AT skew -->
     <g transform="translate(94.6 72.748563) scale(0.1 -0.1)">
      <defs>
       <path id="DejaVuSans-41" d="M 2188 4044 
L 1331 1722 
L 3047 1722 
L 2188 4044 
z
M 1831 4666 
L 2547 4666 
L 4325 0 
L 3669 0 
L 3244 1197 
L 1141 1197 
L 716 0 
L 50 0 
L 1831 4666 
z
" transform="scale(0.015625)"/>
       <path id="DejaVuSans-54" d="M -19 4666 
L 3928 4666 
L 3928 4134 
L 2272 4134 
L 2272 0 
L 1638 0 
L 1638 4134 
L -19 4134 
L -19 4666 
z
" transform="scale(0.015625)"/>
      </defs>
      <use xlink:href="#DejaVuSans-41"/>
      <use xlink:href="#DejaVuSans-54" x="60.658203"/>
      <use xlink:href="#DejaVuSans-20" x="121.742188"/>
      <use xlink:href="#DejaVuSans-73" x="153.529297"/>
      <use xlink:href="#DejaVuSans-6b" x="205.628906"/>
      <use xlink:href="#DejaVuSans-65" x="259.914062"/>
      <use xlink:href="#DejaVuSans-77" x="321.4375"/>
     </g>
    </g>
    <g id="line2d_30">
     <path d="M 66.6 83.926688 
L 76.6 83.926688 
L 86.6 83.926688 
" style="fill: none; stroke: #009e73; stroke-width: 1.5; stroke-linecap: square"/>
    </g>
    <g id="text_30">
     <!-- Cumulative GC skew -->
     <g transform="translate(94.6 87.426688) scale(0.1 -0.1)">
      <use xlink:href="#DejaVuSans-43"/>
      <use xlink:href="#DejaVuSans-75" x="69.824219"/>
      <use xlink:href="#DejaVuSans-6d" x="133.203125"/>
      <use xlink:href="#DejaVuSans-75" x="230.615234"/>
      <use xlink:href="#DejaVuSans-6c" x="293.994141"/>
      <use xlink:href="#DejaVuSans-61" x="321.777344"/>
      <use xlink:href="#DejaVuSans-74" x="383.056641"/>
      <use xlink:href="#DejaVuSans-69" x="422.265625"/>
      <use xlink:href="#DejaVuSans-76" x="450.048828"/>
      <use xlink:href="#DejaVuSans-65" x="509.228516"/>
      <use xlink:href="#DejaVuSans-20" x="570.751953"/>
      <use xlink:href="#DejaVuSans-47" x="602.539062"/>
      <use xlink:href="#DejaVuSans-43" x="680.029297"/>
      <use xlink:href="#DejaVuSans-20" x="749.853516"/>
      <use xlink:href="#DejaVuSans-73" x="781.640625"/>
      <use xlink:href="#DejaVuSans-6b" x="833.740234"/>
      <use xlink:href="#DejaVuSans-65" x="888.025391"/>
      <use xlink:href="#DejaVuSans-77" x="949.548828"/>
     </g>
    </g>
    <g id="line2d_31">
     <path d="M 66.6 98.604813 
L 76.6 98.604813 
L 86.6 98.604813 
" style="fill: none; stroke: #cc79a7; stroke-width: 1.5; stroke-linecap: square"/>
    </g>
    <g id="text_31">
     <!-- Cumulative AT skew -->
     <g transform="translate(94.6 102.104813) scale(0.1 -0.1)">
      <use xlink:href="#DejaVuSans-43"/>
      <use xlink:href="#DejaVuSans-75" x="69.824219"/>
      <use xlink:href="#DejaVuSans-6d" x="133.203125"/>
      <use xlink:href="#DejaVuSans-75" x="230.615234"/>
      <use xlink:href="#DejaVuSans-6c" x="293.994141"/>
      <use xlink:href="#DejaVuSans-61" x="321.777344"/>
      <use xlink:href="#DejaVuSans-74" x="383.056641"/>
      <use xlink:href="#DejaVuSans-69" x="422.265625"/>
      <use xlink:href="#DejaVuSans-76" x="450.048828"/>
      <use xlink:href="#DejaVuSans-65" x="509.228516"/>
      <use xlink:href="#DejaVuSans-20" x="570.751953"/>
      <use xlink:href="#DejaVuSans-41" x="602.539062"/>
      <use xlink:href="#DejaVuSans-54" x="663.197266"/>
      <use xlink:href="#DejaVuSans-20" x="724.28125"/>
      <use xlink:href="#DejaVuSans-73" x="756.068359"/>
      <use xlink:href="#DejaVuSans-6b" x="808.167969"/>
      <use xlink:href="#DejaVuSans-65" x="862.453125"/>
      <use xlink:href="#DejaVuSans-77" x="923.976562"/>
     </g>
    </g>
   </g>
  </g>
 </g>
 <defs>
  <clipPath id="pa716d07191">
   <rect x="57.6" y="41.472" width="357.12" height="266.112"/>
  </clipPath>
 </defs>
</svg>
